ply
format ascii 1.0
comment Created by Blender 2.82 (sub 7) - www.blender.org, source file: ''
element vertex 96
property float x
property float y
property float z
property float nx
property float ny
property float nz
property float s
property float t
property uchar red
property uchar green
property uchar blue
property uchar alpha
element face 26
property list uchar uint vertex_indices
end_header
-0.072750 0.072750 -0.500000 0.000000 0.000000 -1.000000 0.770121 0.547071 145 119 55 255
0.072750 0.072750 -0.500000 0.000000 0.000000 -1.000000 0.446788 0.547071 145 119 55 255
0.072750 -0.072750 -0.500000 0.000000 0.000000 -1.000000 0.446788 0.223738 145 119 55 255
-0.072750 -0.072750 -0.500000 0.000000 0.000000 -1.000000 0.770121 0.223738 133 109 51 255
-0.075000 -0.072750 -0.492500 -1.000000 -0.000000 0.000000 0.995614 0.661970 137 112 53 255
-0.075000 -0.072750 -0.007500 -1.000000 -0.000000 0.000000 0.995614 0.992969 145 119 55 255
-0.075000 0.072750 -0.007500 -1.000000 -0.000000 0.000000 0.679769 0.992969 145 119 55 255
-0.075000 0.072750 -0.492500 -1.000000 -0.000000 0.000000 0.679769 0.661970 145 119 55 255
0.072750 -0.075000 -0.492500 0.000000 -1.000000 0.000000 0.808910 0.669436 145 119 55 255
0.072750 -0.075000 -0.007500 0.000000 -1.000000 0.000000 0.808910 0.992896 145 119 55 255
-0.072750 -0.075000 -0.007500 0.000000 -1.000000 0.000000 0.485449 0.992896 145 119 55 255
-0.072750 -0.075000 -0.492500 0.000000 -1.000000 0.000000 0.485449 0.669436 135 111 52 255
0.072750 0.072750 0.000000 0.000000 -0.000000 1.000000 0.845330 0.303789 144 118 54 255
-0.072750 0.072750 0.000000 0.000000 -0.000000 1.000000 0.845330 0.627122 145 119 55 255
-0.072750 -0.072750 0.000000 0.000000 -0.000000 1.000000 0.521997 0.627122 145 119 55 255
0.072750 -0.072750 0.000000 0.000000 -0.000000 1.000000 0.521997 0.303789 145 119 55 255
0.075000 0.072750 -0.492500 1.000000 -0.000000 0.000000 0.353604 0.674480 145 119 55 255
0.075000 0.072750 -0.007500 1.000000 -0.000000 0.000000 0.353604 0.992696 144 118 54 255
0.075000 -0.072750 -0.007500 1.000000 -0.000000 0.000000 0.049958 0.992696 145 119 55 255
0.075000 -0.072750 -0.492500 1.000000 -0.000000 0.000000 0.049957 0.674480 145 119 55 255
0.072750 0.075000 -0.007500 0.691714 0.691714 0.207514 0.138606 0.992027 141 116 54 254
0.072750 0.072750 0.000000 0.691714 0.691714 0.207514 0.138606 0.999959 144 118 54 254
0.075000 0.072750 -0.007500 0.691714 0.691714 0.207514 0.131037 0.992027 144 118 54 254
0.072750 0.072750 -0.500000 0.691714 0.691714 -0.207515 0.446788 0.547071 145 119 55 255
0.072750 0.075000 -0.492500 0.691714 0.691714 -0.207515 0.446788 0.552071 145 119 55 255
0.075000 0.072750 -0.492500 0.691714 0.691714 -0.207515 0.441788 0.547071 145 119 55 255
0.075000 -0.072750 -0.007500 0.691714 -0.691714 0.207514 0.049958 0.992696 145 119 55 255
0.072750 -0.072750 0.000000 0.691714 -0.691714 0.207514 0.049958 0.997617 145 119 55 255
0.072750 -0.075000 -0.007500 0.691714 -0.691714 0.207514 0.045262 0.992696 145 119 55 255
0.075000 -0.072750 -0.492500 0.691714 -0.691714 -0.207515 0.049957 0.674480 145 119 55 255
0.072750 -0.075000 -0.492500 0.691714 -0.691714 -0.207515 0.045262 0.674480 145 119 55 255
0.072750 -0.072750 -0.500000 0.691714 -0.691714 -0.207515 0.049957 0.669560 145 119 55 255
-0.072750 0.075000 -0.007500 -0.691714 0.691714 0.207514 0.628048 0.992027 145 119 55 255
-0.075000 0.072750 -0.007500 -0.691714 0.691714 0.207514 0.635617 0.992027 145 119 55 255
-0.072750 0.072750 0.000000 -0.691714 0.691714 0.207514 0.628048 0.999959 145 119 55 255
-0.075000 0.072750 -0.492500 -0.691714 0.691714 -0.207515 0.679769 0.661970 145 119 55 255
-0.072750 0.075000 -0.492500 -0.691714 0.691714 -0.207515 0.674885 0.661970 145 119 55 255
-0.072750 0.072750 -0.500000 -0.691714 0.691714 -0.207515 0.679769 0.656852 145 119 55 255
-0.075000 -0.072750 -0.007500 -0.691714 -0.691714 0.207514 0.995614 0.992969 145 119 55 255
-0.072750 -0.075000 -0.007500 -0.691714 -0.691714 0.207514 1.000498 0.992969 145 119 55 255
-0.072750 -0.072750 0.000000 -0.691714 -0.691714 0.207514 0.995614 0.998088 145 119 55 255
-0.072750 -0.072750 -0.500000 -0.691714 -0.691714 -0.207515 0.770121 0.223738 133 109 51 255
-0.072750 -0.075000 -0.492500 -0.691714 -0.691714 -0.207515 0.770121 0.218738 135 111 52 255
-0.075000 -0.072750 -0.492500 -0.691714 -0.691714 -0.207515 0.775121 0.223738 136 112 52 255
-0.072750 0.072750 -0.500000 -0.957826 0.000000 -0.287348 0.770121 0.547071 145 119 55 255
-0.072750 -0.072750 -0.500000 -0.957826 0.000000 -0.287348 0.770121 0.223738 133 109 51 255
-0.075000 -0.072750 -0.492500 -0.957826 0.000000 -0.287348 0.775121 0.223738 136 112 52 255
-0.075000 0.072750 -0.492500 -0.957826 0.000000 -0.287348 0.775121 0.547071 145 119 55 255
0.072750 0.072750 -0.500000 0.000000 0.957826 -0.287348 0.446788 0.547071 145 119 55 255
-0.072750 0.072750 -0.500000 0.000000 0.957826 -0.287348 0.770121 0.547071 145 119 55 255
-0.072750 0.075000 -0.492500 0.000000 0.957826 -0.287348 0.770121 0.552071 145 119 55 255
0.072750 0.075000 -0.492500 0.000000 0.957826 -0.287348 0.446788 0.552071 145 119 55 255
0.075000 0.072750 -0.007500 0.707107 0.707107 0.000000 0.353604 0.992696 144 118 54 255
0.075000 0.072750 -0.492500 0.707107 0.707107 0.000000 0.353604 0.674480 145 119 55 255
0.072750 0.075000 -0.492500 0.707107 0.707107 0.000000 0.358299 0.674480 145 119 55 255
0.072750 0.075000 -0.007500 0.707107 0.707107 0.000000 0.358299 0.992696 145 119 55 255
-0.072750 -0.075000 -0.492500 -0.707107 -0.707107 0.000000 0.485449 0.669436 135 111 52 255
-0.072750 -0.075000 -0.007500 -0.707107 -0.707107 0.000000 0.485449 0.992896 145 119 55 255
-0.075000 -0.072750 -0.007500 -0.707107 -0.707107 0.000000 0.480447 0.992896 145 119 55 255
-0.075000 -0.072750 -0.492500 -0.707107 -0.707107 0.000000 0.480448 0.669436 136 112 52 255
0.072750 -0.075000 -0.007500 0.707107 -0.707107 0.000000 0.808910 0.992896 145 119 55 255
0.072750 -0.075000 -0.492500 0.707107 -0.707107 0.000000 0.808910 0.669436 145 119 55 255
0.075000 -0.072750 -0.492500 0.707107 -0.707107 0.000000 0.813912 0.669436 145 119 55 255
0.075000 -0.072750 -0.007500 0.707107 -0.707107 0.000000 0.813912 0.992896 145 119 55 255
-0.072750 0.075000 -0.007500 -0.707107 0.707107 0.000000 0.628048 0.992027 145 119 55 255
-0.072750 0.075000 -0.492500 -0.707107 0.707107 0.000000 0.628048 0.479101 145 119 55 255
-0.075000 0.072750 -0.492500 -0.707107 0.707107 0.000000 0.635617 0.479101 145 119 55 255
-0.075000 0.072750 -0.007500 -0.707107 0.707107 0.000000 0.635617 0.992027 145 119 55 255
0.072750 -0.072750 0.000000 0.000000 -0.957826 0.287348 0.521997 0.303789 145 119 55 255
-0.072750 -0.072750 0.000000 0.000000 -0.957826 0.287348 0.521997 0.627122 145 119 55 255
-0.072750 -0.075000 -0.007500 0.000000 -0.957826 0.287348 0.516997 0.627122 145 119 55 255
0.072750 -0.075000 -0.007500 0.000000 -0.957826 0.287348 0.516997 0.303789 145 119 55 255
0.072750 0.072750 0.000000 0.957826 0.000000 0.287348 0.845330 0.303789 144 118 54 255
0.072750 -0.072750 0.000000 0.957826 0.000000 0.287348 0.521997 0.303789 145 119 55 255
0.075000 -0.072750 -0.007500 0.957826 0.000000 0.287348 0.521997 0.298789 145 119 55 255
0.075000 0.072750 -0.007500 0.957826 0.000000 0.287348 0.845330 0.298789 144 118 54 255
-0.072750 -0.072750 -0.500000 0.000000 -0.957826 -0.287348 0.770121 0.223738 133 109 51 255
0.072750 -0.072750 -0.500000 0.000000 -0.957826 -0.287348 0.446788 0.223738 145 119 55 255
0.072750 -0.075000 -0.492500 0.000000 -0.957826 -0.287348 0.446788 0.218738 145 119 55 255
-0.072750 -0.075000 -0.492500 0.000000 -0.957826 -0.287348 0.770121 0.218738 135 111 52 255
-0.072750 -0.072750 0.000000 -0.957826 0.000000 0.287348 0.521997 0.627122 145 119 55 255
-0.072750 0.072750 0.000000 -0.957826 0.000000 0.287348 0.845330 0.627122 145 119 55 255
-0.075000 0.072750 -0.007500 -0.957826 0.000000 0.287348 0.845330 0.632122 145 119 55 255
-0.075000 -0.072750 -0.007500 -0.957826 0.000000 0.287348 0.521997 0.632122 145 119 55 255
-0.072750 0.072750 0.000000 0.000000 0.957826 0.287348 0.845330 0.627122 145 119 55 255
0.072750 0.072750 0.000000 0.000000 0.957826 0.287348 0.845330 0.303789 144 118 54 255
0.072750 0.075000 -0.007500 0.000000 0.957826 0.287348 0.850330 0.303789 141 116 54 255
-0.072750 0.075000 -0.007500 0.000000 0.957826 0.287348 0.850330 0.627122 145 119 55 255
0.072750 -0.072750 -0.500000 0.957826 0.000000 -0.287348 0.446788 0.223738 145 119 55 255
0.072750 0.072750 -0.500000 0.957826 0.000000 -0.287348 0.446788 0.547071 145 119 55 255
0.075000 0.072750 -0.492500 0.957826 0.000000 -0.287348 0.441788 0.547071 145 119 55 255
0.075000 -0.072750 -0.492500 0.957826 0.000000 -0.287348 0.441788 0.223738 145 119 55 255
-0.072750 0.075000 -0.492500 0.000000 1.000000 0.000000 0.628048 0.479101 145 119 55 255
-0.072750 0.075000 -0.007500 0.000000 1.000000 0.000000 0.628048 0.992027 145 119 55 255
0.072750 0.075000 -0.007500 0.000000 1.000000 0.000000 0.138606 0.992027 141 116 54 254
0.072750 0.075000 -0.492500 0.000000 1.000000 0.000000 0.138606 0.479101 145 119 55 255
4 0 1 2 3
4 4 5 6 7
4 8 9 10 11
4 12 13 14 15
4 16 17 18 19
3 20 21 22
3 23 24 25
3 26 27 28
3 29 30 31
3 32 33 34
3 35 36 37
3 38 39 40
3 41 42 43
4 44 45 46 47
4 48 49 50 51
4 52 53 54 55
4 56 57 58 59
4 60 61 62 63
4 64 65 66 67
4 68 69 70 71
4 72 73 74 75
4 76 77 78 79
4 80 81 82 83
4 84 85 86 87
4 88 89 90 91
4 92 93 94 95
