ply
format ascii 1.0
comment Created by Blender 2.82 (sub 7) - www.blender.org, source file: ''
element vertex 4
property float x
property float y
property float z
property float nx
property float ny
property float nz
property float s
property float t
property uchar red
property uchar green
property uchar blue
property uchar alpha
element face 1
property list uchar uint vertex_indices
end_header
-2.000000 -2.000000 -0.005000 -0.000000 0.000000 -1.000000 0.125000 0.750000 213 193 168 255
-2.000000 2.000000 -0.005000 -0.000000 0.000000 -1.000000 0.125000 0.500000 229 181 237 255
2.000000 2.000000 -0.005000 -0.000000 0.000000 -1.000000 0.375000 0.500000 195 172 151 255
2.000000 -2.000000 -0.005000 -0.000000 0.000000 -1.000000 0.375000 0.750000 230 182 238 255
4 0 1 2 3
