ply
format ascii 1.0
comment Created by Blender 2.82 (sub 7) - www.blender.org, source file: ''
element vertex 394
property float x
property float y
property float z
property float nx
property float ny
property float nz
property uchar red
property uchar green
property uchar blue
property uchar alpha
element face 168
property list uchar uint vertex_indices
end_header
-0.733534 0.283940 0.490000 0.000000 -0.000000 1.000000 100 104 103 255
-0.733534 -0.206060 0.490000 0.000000 -0.000000 1.000000 212 221 220 255
0.000241 0.283940 0.490000 0.000000 -0.000000 1.000000 201 210 209 255
0.000241 -0.206060 0.490000 0.000000 -0.000000 1.000000 213 222 221 255
0.736466 -0.279559 0.000000 0.000000 -0.000000 -1.000000 255 255 255 255
-0.733534 -0.279559 0.000000 0.000000 -0.000000 -1.000000 102 106 105 255
0.736466 0.283940 0.000000 0.000000 -0.000000 -1.000000 255 255 255 255
-0.733534 0.283940 0.000000 0.000000 0.000000 -1.000000 100 104 103 255
-0.733534 -0.206060 0.490000 -1.000000 0.000000 0.000000 212 221 220 255
-0.733534 0.283940 0.490000 -1.000000 0.000000 0.000000 102 106 105 255
-0.733534 0.283940 0.000000 -1.000000 0.000000 0.000000 100 104 103 255
-0.733534 -0.242810 0.588000 -1.000000 0.000000 0.000000 166 173 172 255
-0.733534 -0.206060 0.539000 -1.000000 0.000000 0.000000 210 219 218 255
-0.733534 -0.279560 0.588000 -1.000000 0.000000 0.000000 142 148 147 255
-0.733534 -0.279559 0.000000 -1.000000 0.000000 0.000000 100 104 103 255
0.002691 0.283940 0.490000 0.000000 1.000000 -0.000000 201 209 208 255
0.736466 0.283940 0.490000 0.000000 1.000000 -0.000000 100 104 103 255
0.002691 0.283940 0.465500 0.000000 1.000000 -0.000000 197 206 205 255
0.736466 0.283940 0.000000 0.000000 1.000000 -0.000000 100 104 103 255
0.000241 0.283940 0.465500 -0.000000 1.000000 -0.000000 198 207 206 255
-0.733534 0.283940 0.000000 0.000000 1.000000 -0.000000 100 104 103 255
0.000241 0.283940 0.490000 -0.000000 1.000000 0.000000 201 210 209 255
-0.733534 0.283940 0.490000 -0.000000 1.000000 0.000000 100 104 103 255
0.714416 0.261890 0.490000 -0.000000 0.000000 1.000000 188 197 196 255
0.736466 0.283940 0.490000 -0.000000 0.000000 1.000000 150 156 155 255
0.024741 0.261890 0.490000 -0.000000 0.000000 1.000000 211 220 219 255
0.002691 0.283940 0.490000 -0.000000 0.000000 1.000000 201 209 208 255
0.024741 -0.184010 0.490000 -0.000000 -0.000000 1.000000 213 222 221 255
0.024741 -0.184010 0.490000 -0.000000 0.000000 1.000000 213 222 221 255
0.002691 0.283940 0.490000 -0.000000 0.000000 1.000000 201 209 208 255
0.002691 -0.206060 0.490000 -0.000000 0.000000 1.000000 213 222 221 255
0.024741 -0.184010 0.490000 0.000000 -0.000000 1.000000 213 222 221 255
0.002691 -0.206060 0.490000 0.000000 -0.000000 1.000000 213 222 221 255
0.714416 -0.184010 0.490000 0.000000 -0.000000 1.000000 213 222 221 255
0.736466 -0.206060 0.490000 0.000000 -0.000000 1.000000 213 222 221 255
0.714416 -0.184010 0.490000 0.000000 0.000000 1.000000 213 222 221 255
0.736466 -0.206060 0.490000 0.000000 0.000000 1.000000 213 222 221 255
0.714416 0.261890 0.490000 0.000000 0.000000 1.000000 188 197 196 255
0.736466 -0.206060 0.490000 0.000000 0.000000 1.000000 213 222 221 255
-0.733534 -0.206060 0.539000 0.000000 1.000000 -0.000000 210 219 218 255
0.736466 -0.206060 0.539000 0.000000 1.000000 -0.000000 213 222 221 255
0.002691 -0.206060 0.490000 0.000000 1.000000 -0.000000 213 222 221 255
0.736466 -0.206060 0.490000 0.000000 1.000000 -0.000000 213 222 221 255
-0.733534 -0.206060 0.490000 0.000000 1.000000 0.000000 212 221 220 255
0.000241 -0.206060 0.490000 0.000000 1.000000 0.000000 213 222 221 255
0.000241 -0.206060 0.490000 0.000000 1.000000 -0.000000 213 222 221 255
0.002691 -0.206060 0.490000 0.000000 1.000000 -0.000000 213 222 221 255
0.000241 -0.206060 0.465500 0.000000 1.000000 -0.000000 213 222 221 255
0.002691 -0.206060 0.465500 0.000000 1.000000 -0.000000 213 222 221 255
0.736466 -0.279560 0.588000 0.000000 -1.000000 -0.000001 101 105 104 255
-0.733534 -0.279560 0.588000 0.000000 -1.000000 -0.000001 100 104 103 255
0.736466 -0.279559 0.000000 0.000000 -1.000000 -0.000001 100 104 103 255
-0.733534 -0.279559 0.000000 0.000000 -1.000000 -0.000001 100 104 103 255
-0.733534 -0.279560 0.588000 0.000000 0.000000 1.000000 142 148 147 255
0.736466 -0.279560 0.588000 0.000000 0.000000 1.000000 152 158 157 255
-0.733534 -0.242810 0.588000 0.000000 0.000000 1.000000 166 173 172 255
0.736466 -0.242810 0.588000 0.000000 0.000000 1.000000 184 190 189 255
0.736466 -0.242810 0.588000 0.000000 0.800000 0.600000 184 190 189 255
0.736466 -0.206060 0.539000 0.000000 0.800000 0.600000 213 222 221 255
-0.733534 -0.242810 0.588000 0.000000 0.800000 0.600000 166 173 172 255
-0.733534 -0.206060 0.539000 -0.000000 0.800000 0.600000 210 219 218 255
0.736466 -0.206060 0.490000 1.000000 0.000000 0.000000 100 104 103 255
0.736466 -0.206060 0.539000 1.000000 0.000000 0.000000 100 104 103 255
0.736466 -0.242810 0.588000 1.000000 0.000000 0.000000 100 104 103 255
0.736466 0.283940 0.000000 1.000000 -0.000000 0.000000 100 104 103 255
0.736466 0.283940 0.490000 1.000000 -0.000000 0.000000 100 104 103 255
0.736466 -0.279559 0.000000 1.000000 -0.000000 0.000000 100 104 103 255
0.736466 -0.279560 0.588000 1.000000 0.000000 0.000000 100 104 103 255
0.000241 -0.206060 0.465500 1.000000 0.000000 0.000000 213 222 221 255
0.000241 0.283940 0.465500 1.000000 0.000000 0.000000 198 207 206 255
0.000241 -0.206060 0.490000 1.000000 0.000000 0.000000 213 222 221 255
0.000241 0.283940 0.490000 1.000000 0.000000 0.000000 201 210 209 255
0.002691 0.283940 0.465500 -1.000000 0.000000 -0.000000 128 131 130 255
0.002691 -0.206060 0.465500 -1.000000 0.000000 -0.000000 100 104 103 255
0.002691 0.283940 0.490000 -1.000000 0.000000 -0.000000 134 138 137 255
0.002691 -0.206060 0.490000 -1.000000 0.000000 0.000000 100 104 103 255
0.002691 -0.206060 0.465500 -0.000000 0.000000 1.000000 213 222 221 255
0.002691 0.283940 0.465500 -0.000000 0.000000 1.000000 197 206 205 255
0.000241 -0.206060 0.465500 -0.000000 0.000000 1.000000 213 222 221 255
0.000241 0.283940 0.465500 -0.000000 0.000000 1.000000 198 207 206 255
0.027191 -0.181560 0.487550 1.000000 0.000000 -0.000000 213 222 221 255
0.027191 -0.181560 0.289100 1.000000 0.000000 -0.000000 213 222 221 255
0.027191 0.259440 0.487550 1.000000 0.000000 -0.000000 211 220 219 255
0.027191 0.259440 0.289100 1.000000 0.000000 -0.000000 100 104 103 255
0.027191 0.259440 0.487550 -0.000000 -1.000000 0.000000 100 104 103 255
0.027191 0.259440 0.289100 -0.000000 -1.000000 0.000000 100 104 103 255
0.711966 0.259440 0.487550 -0.000000 -1.000000 0.000000 194 202 201 255
0.711966 0.259440 0.289100 0.000000 -1.000000 0.000000 120 125 124 255
0.711966 0.259440 0.487550 -1.000000 0.000000 0.000000 194 202 201 255
0.711966 0.259440 0.289100 -1.000000 0.000000 0.000000 156 163 162 255
0.711966 -0.181560 0.487550 -1.000000 0.000000 0.000000 213 222 221 255
0.711966 -0.181560 0.289100 -1.000000 0.000000 0.000000 213 222 221 255
0.711966 -0.181560 0.487550 -0.000000 1.000000 0.000000 213 222 221 255
0.711966 -0.181560 0.289100 -0.000000 1.000000 0.000000 213 222 221 255
0.027191 -0.181560 0.487550 -0.000000 1.000000 0.000000 213 222 221 255
0.027191 -0.181560 0.289100 0.000000 1.000000 -0.000000 213 222 221 255
0.711966 -0.181560 0.289100 -0.000000 0.000000 1.000000 213 222 221 255
0.711966 0.259440 0.289100 -0.000000 0.000000 1.000000 156 163 162 255
0.027191 -0.181560 0.289100 -0.000000 0.000000 1.000000 213 222 221 255
0.027191 0.259440 0.289100 -0.000000 0.000000 1.000000 100 104 103 255
0.711973 -0.181567 0.487743 -0.000000 0.999342 0.036276 213 222 221 255
0.711966 -0.181560 0.487550 -0.000000 0.999342 0.036276 213 222 221 255
0.027191 -0.181560 0.487550 -0.000000 0.999342 0.036276 213 222 221 255
0.711973 -0.181567 0.487743 -0.000024 0.992784 0.119920 213 222 221 255
0.027191 -0.181560 0.487550 -0.000024 0.992784 0.119920 213 222 221 255
0.711996 -0.181590 0.487934 -0.000024 0.992784 0.119920 213 222 221 255
0.027191 -0.181560 0.487550 0.000024 0.999342 0.036277 213 222 221 255
0.027183 -0.181567 0.487743 0.000024 0.999342 0.036277 213 222 221 255
0.711996 -0.181590 0.487934 0.000024 0.999342 0.036277 211 219 218 255
0.711996 -0.181590 0.487934 0.000000 0.992784 0.119918 211 219 218 255
0.027183 -0.181567 0.487743 0.000000 0.992784 0.119918 213 222 221 255
0.027161 -0.181590 0.487934 0.000000 0.992784 0.119918 213 222 221 255
0.711996 -0.181590 0.487934 -0.000000 0.981117 0.193413 213 222 221 255
0.027161 -0.181590 0.487934 -0.000000 0.981117 0.193413 213 222 221 255
0.712034 -0.181627 0.488122 -0.000000 0.981117 0.193413 213 222 221 255
0.712034 -0.181627 0.488122 -0.000023 0.962225 0.272255 213 222 221 255
0.027161 -0.181590 0.487934 -0.000023 0.962225 0.272255 213 222 221 255
0.712085 -0.181679 0.488307 -0.000023 0.962225 0.272255 213 222 221 255
0.027161 -0.181590 0.487934 0.000023 0.981117 0.193417 213 222 221 255
0.027123 -0.181627 0.488122 0.000023 0.981117 0.193417 213 222 221 255
0.712085 -0.181679 0.488307 0.000023 0.981117 0.193417 210 219 218 255
0.712085 -0.181679 0.488307 0.000000 0.962227 0.272250 210 219 218 255
0.027123 -0.181627 0.488122 0.000000 0.962227 0.272250 213 222 221 255
0.027071 -0.181679 0.488307 0.000000 0.962227 0.272250 213 222 221 255
0.712085 -0.181679 0.488307 -0.000000 0.937947 0.346778 213 222 221 255
0.027071 -0.181679 0.488307 -0.000000 0.937947 0.346778 213 222 221 255
0.712152 -0.181746 0.488487 -0.000000 0.937947 0.346778 213 222 221 255
0.712152 -0.181746 0.488487 -0.000022 0.908494 0.417898 213 222 221 255
0.027071 -0.181679 0.488307 -0.000022 0.908494 0.417898 213 222 221 255
0.712232 -0.181826 0.488662 -0.000022 0.908494 0.417898 213 222 221 255
0.026924 -0.181826 0.488662 0.000023 0.873072 0.487592 213 222 221 255
0.026830 -0.181920 0.488830 0.000023 0.873072 0.487592 213 222 221 255
0.712433 -0.182027 0.488990 0.000023 0.873072 0.487592 213 222 221 255
0.027071 -0.181679 0.488307 0.000022 0.937945 0.346785 213 222 221 255
0.027004 -0.181746 0.488487 0.000022 0.937945 0.346785 213 222 221 255
0.712232 -0.181826 0.488662 0.000022 0.937945 0.346785 213 222 221 255
0.712232 -0.181826 0.488662 0.000000 0.908498 0.417890 213 222 221 255
0.027004 -0.181746 0.488487 0.000000 0.908498 0.417890 213 222 221 255
0.026924 -0.181826 0.488662 0.000000 0.908498 0.417890 213 222 221 255
0.712232 -0.181826 0.488662 -0.000000 0.873077 0.487582 213 222 221 255
0.026924 -0.181826 0.488662 -0.000000 0.873077 0.487582 213 222 221 255
0.712327 -0.181920 0.488830 -0.000000 0.873077 0.487582 213 222 221 255
0.712327 -0.181920 0.488830 -0.000023 0.830454 0.557087 213 222 221 255
0.026924 -0.181826 0.488662 -0.000023 0.830454 0.557087 213 222 221 255
0.712433 -0.182027 0.488990 -0.000023 0.830454 0.557087 213 222 221 255
0.026830 -0.181920 0.488830 0.000000 0.830461 0.557077 213 222 221 255
0.026723 -0.182027 0.488990 0.000000 0.830461 0.557077 213 222 221 255
0.712433 -0.182027 0.488990 0.000000 0.830461 0.557077 213 222 221 255
0.712433 -0.182027 0.488990 -0.000000 0.760401 0.649454 213 222 221 255
0.026723 -0.182027 0.488990 -0.000000 0.760401 0.649454 213 222 221 255
0.026473 -0.182277 0.489283 -0.000000 0.760401 0.649454 213 222 221 255
0.712683 -0.182277 0.489283 0.000000 0.760401 0.649454 213 222 221 255
0.712683 -0.182277 0.489283 -0.000000 0.650287 0.759689 213 222 221 255
0.026473 -0.182277 0.489283 -0.000000 0.650287 0.759689 213 222 221 255
0.026181 -0.182569 0.489532 -0.000000 0.650287 0.759689 213 222 221 255
0.712976 -0.182569 0.489532 0.000000 0.650287 0.759689 213 222 221 255
0.712976 -0.182569 0.489532 -0.000000 0.520677 0.853754 213 222 221 255
0.026181 -0.182569 0.489532 -0.000000 0.520677 0.853754 213 222 221 255
0.025853 -0.182897 0.489733 -0.000000 0.520677 0.853754 213 222 221 255
0.713303 -0.182897 0.489733 0.000000 0.520677 0.853754 213 222 221 255
0.713303 -0.182897 0.489733 -0.000000 0.384227 0.923239 213 222 221 255
0.025853 -0.182897 0.489733 -0.000000 0.384227 0.923239 213 222 221 255
0.025497 -0.183252 0.489880 -0.000000 0.384227 0.923239 213 222 221 255
0.713659 -0.183252 0.489880 0.000000 0.384227 0.923239 213 222 221 255
0.713659 -0.183252 0.489880 -0.000000 0.233138 0.972444 213 222 221 255
0.025497 -0.183252 0.489880 -0.000000 0.233138 0.972444 213 222 221 255
0.025124 -0.183626 0.489970 -0.000000 0.233138 0.972444 213 222 221 255
0.714033 -0.183626 0.489970 0.000000 0.233138 0.972444 213 222 221 255
0.714033 -0.183626 0.489970 -0.000000 0.078147 0.996942 213 222 221 255
0.025124 -0.183626 0.489970 -0.000000 0.078147 0.996942 213 222 221 255
0.024741 -0.184010 0.490000 -0.000000 0.078147 0.996942 213 222 221 255
0.714416 -0.184010 0.490000 0.000000 0.078147 0.996942 213 222 221 255
0.711973 0.259448 0.487743 -0.999203 0.000000 0.039906 194 202 201 255
0.711966 0.259440 0.487550 -0.999203 0.000000 0.039906 194 202 201 255
0.711966 -0.181560 0.487550 -0.999203 0.000000 0.039906 213 222 221 255
0.711973 0.259448 0.487743 -0.993192 -0.000034 0.116486 194 202 201 255
0.711966 -0.181560 0.487550 -0.993192 -0.000034 0.116486 213 222 221 255
0.711996 0.259471 0.487934 -0.993192 -0.000034 0.116486 194 202 201 255
0.711966 -0.181560 0.487550 -0.999203 0.000033 0.039907 213 222 221 255
0.711973 -0.181567 0.487743 -0.999203 0.000033 0.039907 213 222 221 255
0.711996 0.259471 0.487934 -0.999203 0.000033 0.039907 194 202 201 255
0.711996 0.259471 0.487934 -0.993193 0.000000 0.116482 194 202 201 255
0.711973 -0.181567 0.487743 -0.993193 0.000000 0.116482 213 222 221 255
0.711996 -0.181590 0.487934 -0.993193 0.000000 0.116482 213 222 221 255
0.711996 0.259471 0.487934 -0.980389 0.000000 0.197071 194 202 201 255
0.711996 -0.181590 0.487934 -0.980389 0.000000 0.197071 213 222 221 255
0.712034 0.259508 0.488122 -0.980389 0.000000 0.197071 194 202 201 255
0.712034 0.259508 0.488122 -0.963231 -0.000032 0.268674 194 202 201 255
0.711996 -0.181590 0.487934 -0.963231 -0.000032 0.268674 213 222 221 255
0.712085 0.259561 0.488307 -0.963231 -0.000032 0.268674 193 201 200 255
0.711996 -0.181590 0.487934 -0.980388 0.000032 0.197077 213 222 221 255
0.712034 -0.181627 0.488122 -0.980388 0.000032 0.197077 213 222 221 255
0.712085 0.259561 0.488307 -0.980388 0.000032 0.197077 193 201 200 255
0.712085 0.259561 0.488307 -0.963234 0.000000 0.268665 193 201 200 255
0.712034 -0.181627 0.488122 -0.963234 0.000000 0.268665 213 222 221 255
0.712085 -0.181679 0.488307 -0.963234 0.000000 0.268665 213 222 221 255
0.712085 0.259561 0.488307 -0.938048 0.000000 0.346504 193 201 200 255
0.712085 -0.181679 0.488307 -0.938048 0.000000 0.346504 213 222 221 255
0.712152 0.259627 0.488487 -0.938048 0.000000 0.346504 193 201 200 255
0.712152 0.259627 0.488487 -0.908433 -0.000034 0.418031 193 201 200 255
0.712085 -0.181679 0.488307 -0.908433 -0.000034 0.418031 213 222 221 255
0.712232 0.259708 0.488662 -0.908433 -0.000034 0.418031 193 201 200 255
0.712232 -0.181826 0.488662 -0.871584 0.000033 0.490246 213 222 221 255
0.712327 -0.181920 0.488830 -0.871584 0.000033 0.490246 213 222 221 255
0.712433 0.259909 0.488990 -0.871584 0.000033 0.490246 192 200 199 255
0.712085 -0.181679 0.488307 -0.938044 0.000034 0.346515 213 222 221 255
0.712152 -0.181746 0.488487 -0.938044 0.000034 0.346515 213 222 221 255
0.712232 0.259708 0.488662 -0.938044 0.000034 0.346515 193 201 200 255
0.712232 0.259708 0.488662 -0.908439 0.000000 0.418018 193 201 200 255
0.712152 -0.181746 0.488487 -0.908439 0.000000 0.418018 213 222 221 255
0.712232 -0.181826 0.488662 -0.908439 0.000000 0.418018 213 222 221 255
0.712232 0.259708 0.488662 -0.871592 0.000000 0.490232 193 201 200 255
0.712232 -0.181826 0.488662 -0.871592 0.000000 0.490232 213 222 221 255
0.712327 0.259802 0.488830 -0.871592 0.000000 0.490232 193 201 200 255
0.712327 0.259802 0.488830 -0.832136 -0.000033 0.554572 193 201 200 255
0.712232 -0.181826 0.488662 -0.832136 -0.000033 0.554572 213 222 221 255
0.712433 0.259909 0.488990 -0.832136 -0.000033 0.554572 192 200 199 255
0.712327 -0.181920 0.488830 -0.832146 0.000000 0.554557 213 222 221 255
0.712433 -0.182027 0.488990 -0.832146 0.000000 0.554557 213 222 221 255
0.712433 0.259909 0.488990 -0.832146 0.000000 0.554557 192 200 199 255
0.712433 0.259909 0.488990 -0.760382 0.000000 0.649477 192 200 199 255
0.712433 -0.182027 0.488990 -0.760382 0.000000 0.649477 213 222 221 255
0.712683 -0.182277 0.489283 -0.760382 0.000000 0.649477 213 222 221 255
0.712683 0.260158 0.489283 -0.760382 0.000000 0.649477 192 199 198 255
0.712683 0.260158 0.489283 -0.649310 0.000000 0.760523 192 199 198 255
0.712683 -0.182277 0.489283 -0.649310 0.000000 0.760523 213 222 221 255
0.712976 -0.182569 0.489532 -0.649310 0.000000 0.760523 213 222 221 255
0.712976 0.260450 0.489532 -0.649310 0.000000 0.760523 191 199 198 255
0.712976 0.260450 0.489532 -0.521557 0.000000 0.853217 191 199 198 255
0.712976 -0.182569 0.489532 -0.521557 0.000000 0.853217 213 222 221 255
0.713303 -0.182897 0.489733 -0.521557 0.000000 0.853217 213 222 221 255
0.713303 0.260778 0.489733 -0.521557 0.000000 0.853217 191 198 197 255
0.713303 0.260778 0.489733 -0.383527 0.000000 0.923530 191 198 197 255
0.713303 -0.182897 0.489733 -0.383527 0.000000 0.923530 213 222 221 255
0.713659 -0.183252 0.489880 -0.383527 0.000000 0.923530 213 222 221 255
0.713659 0.261134 0.489880 -0.383527 0.000000 0.923530 190 198 197 255
0.713659 0.261134 0.489880 -0.233182 0.000000 0.972433 190 198 197 255
0.713659 -0.183252 0.489880 -0.233182 0.000000 0.972433 213 222 221 255
0.714033 -0.183626 0.489970 -0.233182 0.000000 0.972433 213 222 221 255
0.714033 0.261507 0.489970 -0.233182 0.000000 0.972433 190 198 197 255
0.714033 0.261507 0.489970 -0.078280 0.000000 0.996931 190 198 197 255
0.714033 -0.183626 0.489970 -0.078280 0.000000 0.996931 213 222 221 255
0.714416 -0.184010 0.490000 -0.078280 0.000000 0.996931 213 222 221 255
0.714416 0.261890 0.490000 -0.078280 0.000000 0.996931 188 197 196 255
0.027183 0.259448 0.487743 0.993200 -0.000000 0.116424 211 220 219 255
0.027161 0.259471 0.487934 0.993200 -0.000000 0.116424 211 220 219 255
0.027161 -0.181590 0.487934 0.993200 -0.000000 0.116424 213 222 221 255
0.027123 0.259508 0.488122 0.963146 -0.000000 0.268979 211 220 219 255
0.027071 0.259561 0.488307 0.963146 -0.000000 0.268979 211 220 219 255
0.027071 -0.181679 0.488307 0.963146 -0.000000 0.268979 213 222 221 255
0.027004 0.259627 0.488487 0.909864 -0.000000 0.414907 211 220 219 255
0.026924 0.259708 0.488662 0.909864 -0.000000 0.414907 211 220 219 255
0.026924 -0.181826 0.488662 0.909864 -0.000000 0.414907 213 222 221 255
0.026830 0.259802 0.488830 0.830452 -0.000000 0.557090 211 220 219 255
0.026723 0.259909 0.488990 0.830452 -0.000000 0.557090 211 220 219 255
0.026723 -0.182027 0.488990 0.830452 -0.000000 0.557090 213 222 221 255
0.026723 -0.182027 0.488990 0.761310 0.000000 0.648389 213 222 221 255
0.026723 0.259909 0.488990 0.761310 0.000000 0.648389 211 220 219 255
0.026473 0.260158 0.489283 0.761310 0.000000 0.648389 211 220 219 255
0.026473 -0.182277 0.489283 0.761310 -0.000000 0.648389 213 222 221 255
0.026473 -0.182277 0.489283 0.649382 0.000000 0.760462 213 222 221 255
0.026473 0.260158 0.489283 0.649382 0.000000 0.760462 211 220 219 255
0.026181 0.260450 0.489532 0.649382 0.000000 0.760462 211 220 219 255
0.026473 -0.182277 0.489283 0.649382 -0.000000 0.760462 213 222 221 255
0.026181 0.260450 0.489532 0.649382 -0.000000 0.760462 211 220 219 255
0.026181 -0.182569 0.489532 0.649382 -0.000000 0.760462 213 222 221 255
0.026181 -0.182569 0.489532 0.521477 0.000000 0.853265 213 222 221 255
0.026181 0.260450 0.489532 0.521477 0.000000 0.853265 211 220 219 255
0.025853 0.260778 0.489733 0.521477 0.000000 0.853265 211 220 219 255
0.025853 -0.182897 0.489733 0.521477 -0.000000 0.853265 213 222 221 255
0.025853 -0.182897 0.489733 0.383580 0.000000 0.923508 213 222 221 255
0.025853 0.260778 0.489733 0.383580 0.000000 0.923508 211 220 219 255
0.025497 0.261134 0.489880 0.383580 0.000000 0.923508 211 220 219 255
0.025497 -0.183252 0.489880 0.383580 -0.000000 0.923508 213 222 221 255
0.025497 -0.183252 0.489880 0.233137 0.000000 0.972444 213 222 221 255
0.025497 0.261134 0.489880 0.233137 0.000000 0.972444 211 220 219 255
0.025124 0.261507 0.489970 0.233137 0.000000 0.972444 211 220 219 255
0.025124 -0.183626 0.489970 0.233137 -0.000000 0.972444 213 222 221 255
0.025124 -0.183626 0.489970 0.078293 0.000000 0.996930 213 222 221 255
0.025124 0.261507 0.489970 0.078293 0.000000 0.996930 211 220 219 255
0.024741 0.261890 0.490000 0.078293 0.000000 0.996930 211 220 219 255
0.024741 -0.184010 0.490000 0.078293 -0.000000 0.996930 213 222 221 255
0.026830 0.259802 0.488830 0.871522 -0.000034 0.490356 211 220 219 255
0.026723 -0.182027 0.488990 0.871522 -0.000034 0.490356 213 222 221 255
0.026924 0.259708 0.488662 0.871522 -0.000034 0.490356 211 220 219 255
0.026924 0.259708 0.488662 0.830441 0.000034 0.557106 211 220 219 255
0.026723 -0.182027 0.488990 0.830441 0.000034 0.557106 213 222 221 255
0.026830 -0.181920 0.488830 0.830441 0.000034 0.557106 213 222 221 255
0.026924 0.259708 0.488662 0.871530 0.000000 0.490342 211 220 219 255
0.026830 -0.181920 0.488830 0.871530 0.000000 0.490342 213 222 221 255
0.026924 -0.181826 0.488662 0.871530 0.000000 0.490342 213 222 221 255
0.027004 0.259627 0.488487 0.936790 -0.000031 0.349892 211 220 219 255
0.026924 -0.181826 0.488662 0.936790 -0.000031 0.349892 213 222 221 255
0.027071 0.259561 0.488307 0.936790 -0.000031 0.349892 211 220 219 255
0.027071 0.259561 0.488307 0.909859 0.000031 0.414918 211 220 219 255
0.026924 -0.181826 0.488662 0.909859 0.000031 0.414918 213 222 221 255
0.027004 -0.181746 0.488487 0.909859 0.000031 0.414918 213 222 221 255
0.027071 0.259561 0.488307 0.936794 0.000000 0.349882 211 220 219 255
0.027004 -0.181746 0.488487 0.936794 0.000000 0.349882 213 222 221 255
0.027071 -0.181679 0.488307 0.936794 0.000000 0.349882 213 222 221 255
0.027123 0.259508 0.488122 0.980439 -0.000032 0.196825 211 220 219 255
0.027071 -0.181679 0.488307 0.980439 -0.000032 0.196825 213 222 221 255
0.027161 0.259471 0.487934 0.980439 -0.000032 0.196825 211 220 219 255
0.027161 0.259471 0.487934 0.963144 0.000032 0.268988 211 220 219 255
0.027071 -0.181679 0.488307 0.963144 0.000032 0.268988 213 222 221 255
0.027123 -0.181627 0.488122 0.963144 0.000032 0.268988 213 222 221 255
0.027161 0.259471 0.487934 0.980440 0.000000 0.196819 211 220 219 255
0.027123 -0.181627 0.488122 0.980440 0.000000 0.196819 213 222 221 255
0.027161 -0.181590 0.487934 0.980440 0.000000 0.196819 213 222 221 255
0.027183 0.259448 0.487743 0.999201 -0.000033 0.039975 211 220 219 255
0.027161 -0.181590 0.487934 0.999201 -0.000033 0.039975 213 222 221 255
0.027191 0.259440 0.487550 0.999201 -0.000033 0.039975 211 220 219 255
0.027191 0.259440 0.487550 0.993199 0.000033 0.116428 211 220 219 255
0.027161 -0.181590 0.487934 0.993199 0.000033 0.116428 213 222 221 255
0.027183 -0.181567 0.487743 0.993199 0.000033 0.116428 213 222 221 255
0.027191 0.259440 0.487550 0.999201 0.000000 0.039974 211 220 219 255
0.027183 -0.181567 0.487743 0.999201 0.000000 0.039974 213 222 221 255
0.027191 -0.181560 0.487550 0.999201 0.000000 0.039974 213 222 221 255
0.027183 0.259448 0.487743 0.000000 -0.999203 0.039906 211 220 219 255
0.027191 0.259440 0.487550 0.000000 -0.999203 0.039906 211 220 219 255
0.711966 0.259440 0.487550 0.000000 -0.999203 0.039906 194 202 201 255
0.027183 0.259448 0.487743 0.000023 -0.992774 0.119996 211 220 219 255
0.711966 0.259440 0.487550 0.000023 -0.992774 0.119996 100 104 103 255
0.027161 0.259471 0.487934 0.000023 -0.992774 0.119996 211 220 219 255
0.711966 0.259440 0.487550 -0.000023 -0.999203 0.039907 194 202 201 255
0.711973 0.259448 0.487743 -0.000023 -0.999203 0.039907 194 202 201 255
0.027161 0.259471 0.487934 -0.000023 -0.999203 0.039907 211 220 219 255
0.027161 0.259471 0.487934 0.000000 -0.992775 0.119994 211 220 219 255
0.711973 0.259448 0.487743 0.000000 -0.992775 0.119994 194 202 201 255
0.711996 0.259471 0.487934 0.000000 -0.992775 0.119994 194 202 201 255
0.027161 0.259471 0.487934 0.000000 -0.981132 0.193338 211 220 219 255
0.711996 0.259471 0.487934 0.000000 -0.981132 0.193338 194 202 201 255
0.027123 0.259508 0.488122 0.000000 -0.981132 0.193338 211 220 219 255
0.027123 0.259508 0.488122 0.000023 -0.962184 0.272399 211 220 219 255
0.711996 0.259471 0.487934 0.000023 -0.962184 0.272399 100 104 103 255
0.027071 0.259561 0.488307 0.000023 -0.962184 0.272399 211 220 219 255
0.711996 0.259471 0.487934 -0.000023 -0.981131 0.193342 194 202 201 255
0.712034 0.259508 0.488122 -0.000023 -0.981131 0.193342 194 202 201 255
0.027071 0.259561 0.488307 -0.000023 -0.981131 0.193342 211 220 219 255
0.027071 0.259561 0.488307 0.000000 -0.962186 0.272393 211 220 219 255
0.712034 0.259508 0.488122 0.000000 -0.962186 0.272393 194 202 201 255
0.712085 0.259561 0.488307 0.000000 -0.962186 0.272393 193 201 200 255
0.027071 0.259561 0.488307 0.000000 -0.937998 0.346641 211 220 219 255
0.712085 0.259561 0.488307 0.000000 -0.937998 0.346641 100 104 103 255
0.027004 0.259627 0.488487 0.000000 -0.937998 0.346641 211 220 219 255
0.027004 0.259627 0.488487 0.000022 -0.908494 0.417898 211 220 219 255
0.712085 0.259561 0.488307 0.000022 -0.908494 0.417898 100 104 103 255
0.026924 0.259708 0.488662 0.000022 -0.908494 0.417898 211 220 219 255
0.712232 0.259708 0.488662 -0.000023 -0.873039 0.487651 193 201 200 255
0.712327 0.259802 0.488830 -0.000023 -0.873039 0.487651 193 201 200 255
0.026723 0.259909 0.488990 -0.000023 -0.873039 0.487651 211 220 219 255
0.712085 0.259561 0.488307 -0.000022 -0.937995 0.346648 193 201 200 255
0.712152 0.259627 0.488487 -0.000022 -0.937995 0.346648 193 201 200 255
0.026924 0.259708 0.488662 -0.000022 -0.937995 0.346648 211 220 219 255
0.026924 0.259708 0.488662 0.000000 -0.908498 0.417890 211 220 219 255
0.712152 0.259627 0.488487 0.000000 -0.908498 0.417890 193 201 200 255
0.712232 0.259708 0.488662 0.000000 -0.908498 0.417890 193 201 200 255
0.026924 0.259708 0.488662 0.000000 -0.873044 0.487641 211 220 219 255
0.712232 0.259708 0.488662 0.000000 -0.873044 0.487641 193 201 200 255
0.026830 0.259802 0.488830 0.000000 -0.873044 0.487641 211 220 219 255
0.026830 0.259802 0.488830 0.000023 -0.830490 0.557034 211 220 219 255
0.712232 0.259708 0.488662 0.000023 -0.830490 0.557034 193 201 200 255
0.026723 0.259909 0.488990 0.000023 -0.830490 0.557034 211 220 219 255
0.712327 0.259802 0.488830 0.000000 -0.830497 0.557024 193 201 200 255
0.712433 0.259909 0.488990 0.000000 -0.830497 0.557024 192 200 199 255
0.026723 0.259909 0.488990 0.000000 -0.830497 0.557024 211 220 219 255
0.026723 0.259909 0.488990 0.000000 -0.760420 0.649432 211 220 219 255
0.712433 0.259909 0.488990 0.000000 -0.760420 0.649432 192 200 199 255
0.712683 0.260158 0.489283 0.000000 -0.760420 0.649432 192 199 198 255
0.026473 0.260158 0.489283 0.000000 -0.760420 0.649432 211 220 219 255
0.026473 0.260158 0.489283 0.000000 -0.650268 0.759705 211 220 219 255
0.712683 0.260158 0.489283 0.000000 -0.650268 0.759705 192 199 198 255
0.712976 0.260450 0.489532 0.000000 -0.650268 0.759705 191 199 198 255
0.026473 0.260158 0.489283 0.000000 -0.650267 0.759705 211 220 219 255
0.712976 0.260450 0.489532 0.000000 -0.650267 0.759705 191 199 198 255
0.026181 0.260450 0.489532 0.000000 -0.650267 0.759705 211 220 219 255
0.026181 0.260450 0.489532 0.000000 -0.521488 0.853259 211 220 219 255
0.712976 0.260450 0.489532 0.000000 -0.521488 0.853259 191 199 198 255
0.713303 0.260778 0.489733 0.000000 -0.521488 0.853259 191 198 197 255
0.026181 0.260450 0.489532 0.000000 -0.521488 0.853259 211 220 219 255
0.713303 0.260778 0.489733 0.000000 -0.521488 0.853259 191 198 197 255
0.025853 0.260778 0.489733 0.000000 -0.521488 0.853259 211 220 219 255
0.025853 0.260778 0.489733 0.000000 -0.383555 0.923518 211 220 219 255
0.713303 0.260778 0.489733 0.000000 -0.383555 0.923518 191 198 197 255
0.713659 0.261134 0.489880 0.000000 -0.383555 0.923518 190 198 197 255
0.025497 0.261134 0.489880 0.000000 -0.383555 0.923518 211 220 219 255
0.025497 0.261134 0.489880 0.000000 -0.233147 0.972441 211 220 219 255
0.713659 0.261134 0.489880 0.000000 -0.233147 0.972441 190 198 197 255
0.714033 0.261507 0.489970 0.000000 -0.233147 0.972441 190 198 197 255
0.025124 0.261507 0.489970 0.000000 -0.233147 0.972441 211 220 219 255
0.025124 0.261507 0.489970 0.000000 -0.078293 0.996930 211 220 219 255
0.714033 0.261507 0.489970 0.000000 -0.078293 0.996930 190 198 197 255
0.714416 0.261890 0.490000 0.000000 -0.078293 0.996930 188 197 196 255
0.024741 0.261890 0.490000 0.000000 -0.078293 0.996930 211 220 219 255
3 0 1 2
3 2 1 3
3 4 5 6
3 6 5 7
3 8 9 10
3 11 12 13
3 13 12 8
3 13 8 14
3 14 8 10
3 15 16 17
3 17 16 18
3 17 18 19
3 19 18 20
3 19 20 21
3 21 20 22
3 23 24 25
3 25 24 26
3 25 26 27
3 28 29 30
3 31 32 33
3 33 32 34
3 35 36 37
3 23 38 24
3 39 40 41
3 41 40 42
3 43 39 44
3 44 39 41
3 45 46 47
3 47 46 48
3 49 50 51
3 51 50 52
3 53 54 55
3 55 54 56
3 57 58 59
3 59 58 60
3 61 62 63
3 64 65 66
3 66 65 61
3 66 61 67
3 67 61 63
3 68 69 70
3 70 69 71
3 72 73 74
3 74 73 75
3 76 77 78
3 78 77 79
3 80 81 82
3 82 81 83
3 84 85 86
3 86 85 87
3 88 89 90
3 90 89 91
3 92 93 94
3 94 93 95
3 96 97 98
3 98 97 99
3 100 101 102
3 103 104 105
3 106 107 108
3 109 110 111
3 112 113 114
3 115 116 117
3 118 119 120
3 121 122 123
3 124 125 126
3 127 128 129
3 130 131 132
3 133 134 135
3 136 137 138
3 139 140 141
3 142 143 144
3 145 146 147
3 148 149 150
3 148 150 151
3 152 153 154
3 152 154 155
3 156 157 158
3 156 158 159
3 160 161 162
3 160 162 163
3 164 165 166
3 164 166 167
3 168 169 170
3 168 170 171
3 172 173 174
3 175 176 177
3 178 179 180
3 181 182 183
3 184 185 186
3 187 188 189
3 190 191 192
3 193 194 195
3 196 197 198
3 199 200 201
3 202 203 204
3 205 206 207
3 208 209 210
3 211 212 213
3 214 215 216
3 217 218 219
3 220 221 222
3 220 222 223
3 224 225 226
3 224 226 227
3 228 229 230
3 228 230 231
3 232 233 234
3 232 234 235
3 236 237 238
3 236 238 239
3 240 241 242
3 240 242 243
3 244 245 246
3 247 248 249
3 250 251 252
3 253 254 255
3 256 257 258
3 256 258 259
3 260 261 262
3 263 264 265
3 266 267 268
3 266 268 269
3 270 271 272
3 270 272 273
3 274 275 276
3 274 276 277
3 278 279 280
3 278 280 281
3 282 283 284
3 285 286 287
3 288 289 290
3 291 292 293
3 294 295 296
3 297 298 299
3 300 301 302
3 303 304 305
3 306 307 308
3 309 310 311
3 312 313 314
3 315 316 317
3 318 319 320
3 321 322 323
3 324 325 326
3 327 328 329
3 330 331 332
3 333 334 335
3 336 337 338
3 339 340 341
3 342 343 344
3 345 346 347
3 348 349 350
3 351 352 353
3 354 355 356
3 357 358 359
3 360 361 362
3 363 364 365
3 366 367 368
3 366 368 369
3 370 371 372
3 373 374 375
3 376 377 378
3 379 380 381
3 382 383 384
3 382 384 385
3 386 387 388
3 386 388 389
3 390 391 392
3 390 392 393
