ply
format ascii 1.0
comment Created by Blender 2.82 (sub 7) - www.blender.org, source file: ''
element vertex 394
property float x
property float y
property float z
property float nx
property float ny
property float nz
property uchar red
property uchar green
property uchar blue
property uchar alpha
element face 168
property list uchar uint vertex_indices
end_header
-1.047906 0.405629 0.700000 0.000000 -0.000000 1.000000 100 104 103 255
-1.047906 -0.294371 0.700000 0.000000 -0.000000 1.000000 212 221 220 255
0.000344 0.405629 0.700000 0.000000 -0.000000 1.000000 201 210 209 255
0.000344 -0.294371 0.700000 0.000000 -0.000000 1.000000 213 222 221 255
1.052094 -0.399370 0.000000 0.000000 -0.000000 -1.000000 255 255 255 255
-1.047906 -0.399370 0.000000 0.000000 -0.000000 -1.000000 102 106 105 255
1.052094 0.405629 0.000000 0.000000 -0.000000 -1.000000 255 255 255 255
-1.047906 0.405629 0.000000 0.000000 0.000000 -1.000000 100 104 103 255
-1.047906 -0.294371 0.700000 -1.000000 0.000000 0.000000 212 221 220 255
-1.047906 0.405629 0.700000 -1.000000 0.000000 0.000000 102 106 105 255
-1.047906 0.405629 0.000000 -1.000000 0.000000 0.000000 100 104 103 255
-1.047906 -0.346871 0.840000 -1.000000 0.000000 0.000000 166 173 172 255
-1.047906 -0.294371 0.770000 -1.000000 0.000000 0.000000 210 219 218 255
-1.047906 -0.399371 0.840000 -1.000000 0.000000 0.000000 142 148 147 255
-1.047906 -0.399370 0.000000 -1.000000 0.000000 0.000000 100 104 103 255
0.003844 0.405629 0.700000 0.000000 1.000000 -0.000000 201 209 208 255
1.052094 0.405629 0.700000 0.000000 1.000000 -0.000000 100 104 103 255
0.003844 0.405629 0.665000 0.000000 1.000000 -0.000000 197 206 205 255
1.052094 0.405629 0.000000 0.000000 1.000000 -0.000000 100 104 103 255
0.000344 0.405629 0.665000 -0.000000 1.000000 -0.000000 198 207 206 255
-1.047906 0.405629 0.000000 0.000000 1.000000 -0.000000 100 104 103 255
0.000344 0.405629 0.700000 -0.000000 1.000000 0.000000 201 210 209 255
-1.047906 0.405629 0.700000 -0.000000 1.000000 0.000000 100 104 103 255
1.020594 0.374129 0.700000 -0.000000 0.000000 1.000000 188 197 196 255
1.052094 0.405629 0.700000 -0.000000 0.000000 1.000000 150 156 155 255
0.035344 0.374129 0.700000 -0.000000 0.000000 1.000000 211 220 219 255
0.003844 0.405629 0.700000 -0.000000 0.000000 1.000000 201 209 208 255
0.035344 -0.262871 0.700000 -0.000000 -0.000000 1.000000 213 222 221 255
0.035344 -0.262871 0.700000 -0.000000 0.000000 1.000000 213 222 221 255
0.003844 0.405629 0.700000 -0.000000 0.000000 1.000000 201 209 208 255
0.003844 -0.294371 0.700000 -0.000000 0.000000 1.000000 213 222 221 255
0.035344 -0.262871 0.700000 0.000000 -0.000000 1.000000 213 222 221 255
0.003844 -0.294371 0.700000 0.000000 -0.000000 1.000000 213 222 221 255
1.020594 -0.262871 0.700000 0.000000 -0.000000 1.000000 213 222 221 255
1.052094 -0.294371 0.700000 0.000000 -0.000000 1.000000 213 222 221 255
1.020594 -0.262871 0.700000 0.000000 0.000000 1.000000 213 222 221 255
1.052094 -0.294371 0.700000 0.000000 0.000000 1.000000 213 222 221 255
1.020594 0.374129 0.700000 0.000000 0.000000 1.000000 188 197 196 255
1.052094 -0.294371 0.700000 0.000000 0.000000 1.000000 213 222 221 255
-1.047906 -0.294371 0.770000 0.000000 1.000000 -0.000000 210 219 218 255
1.052094 -0.294371 0.770000 0.000000 1.000000 -0.000000 213 222 221 255
0.003844 -0.294371 0.700000 0.000000 1.000000 -0.000000 213 222 221 255
1.052094 -0.294371 0.700000 0.000000 1.000000 -0.000000 213 222 221 255
-1.047906 -0.294371 0.700000 0.000000 1.000000 0.000000 212 221 220 255
0.000344 -0.294371 0.700000 0.000000 1.000000 0.000000 213 222 221 255
0.000344 -0.294371 0.700000 0.000000 1.000000 -0.000000 213 222 221 255
0.003844 -0.294371 0.700000 0.000000 1.000000 -0.000000 213 222 221 255
0.000344 -0.294371 0.665000 0.000000 1.000000 -0.000000 213 222 221 255
0.003844 -0.294371 0.665000 0.000000 1.000000 -0.000000 213 222 221 255
1.052094 -0.399371 0.840000 0.000000 -1.000000 -0.000001 101 105 104 255
-1.047906 -0.399371 0.840000 0.000000 -1.000000 -0.000001 100 104 103 255
1.052094 -0.399370 0.000000 0.000000 -1.000000 -0.000001 100 104 103 255
-1.047906 -0.399370 0.000000 0.000000 -1.000000 -0.000001 100 104 103 255
-1.047906 -0.399371 0.840000 0.000000 0.000000 1.000000 142 148 147 255
1.052094 -0.399371 0.840000 0.000000 0.000000 1.000000 152 158 157 255
-1.047906 -0.346871 0.840000 0.000000 0.000000 1.000000 166 173 172 255
1.052094 -0.346871 0.840000 0.000000 0.000000 1.000000 184 190 189 255
1.052094 -0.346871 0.840000 0.000000 0.800000 0.600000 184 190 189 255
1.052094 -0.294371 0.770000 0.000000 0.800000 0.600000 213 222 221 255
-1.047906 -0.346871 0.840000 0.000000 0.800000 0.600000 166 173 172 255
-1.047906 -0.294371 0.770000 -0.000000 0.800000 0.600000 210 219 218 255
1.052094 -0.294371 0.700000 1.000000 0.000000 0.000000 100 104 103 255
1.052094 -0.294371 0.770000 1.000000 0.000000 0.000000 100 104 103 255
1.052094 -0.346871 0.840000 1.000000 0.000000 0.000000 100 104 103 255
1.052094 0.405629 0.000000 1.000000 -0.000000 0.000000 100 104 103 255
1.052094 0.405629 0.700000 1.000000 -0.000000 0.000000 100 104 103 255
1.052094 -0.399370 0.000000 1.000000 -0.000000 0.000000 100 104 103 255
1.052094 -0.399371 0.840000 1.000000 0.000000 0.000000 100 104 103 255
0.000344 -0.294371 0.665000 1.000000 0.000000 0.000000 213 222 221 255
0.000344 0.405629 0.665000 1.000000 0.000000 0.000000 198 207 206 255
0.000344 -0.294371 0.700000 1.000000 0.000000 0.000000 213 222 221 255
0.000344 0.405629 0.700000 1.000000 0.000000 0.000000 201 210 209 255
0.003844 0.405629 0.665000 -1.000000 0.000000 -0.000000 128 131 130 255
0.003844 -0.294371 0.665000 -1.000000 0.000000 -0.000000 100 104 103 255
0.003844 0.405629 0.700000 -1.000000 0.000000 -0.000000 134 138 137 255
0.003844 -0.294371 0.700000 -1.000000 0.000000 0.000000 100 104 103 255
0.003844 -0.294371 0.665000 -0.000000 0.000000 1.000000 213 222 221 255
0.003844 0.405629 0.665000 -0.000000 0.000000 1.000000 197 206 205 255
0.000344 -0.294371 0.665000 -0.000000 0.000000 1.000000 213 222 221 255
0.000344 0.405629 0.665000 -0.000000 0.000000 1.000000 198 207 206 255
0.038844 -0.259371 0.696500 1.000000 0.000000 -0.000000 213 222 221 255
0.038844 -0.259371 0.413000 1.000000 0.000000 -0.000000 213 222 221 255
0.038844 0.370629 0.696500 1.000000 0.000000 -0.000000 211 220 219 255
0.038844 0.370629 0.413000 1.000000 0.000000 -0.000000 100 104 103 255
0.038844 0.370629 0.696500 -0.000000 -1.000000 0.000000 100 104 103 255
0.038844 0.370629 0.413000 -0.000000 -1.000000 0.000000 100 104 103 255
1.017094 0.370629 0.696500 -0.000000 -1.000000 0.000000 194 202 201 255
1.017094 0.370629 0.413000 0.000000 -1.000000 0.000000 120 125 124 255
1.017094 0.370629 0.696500 -1.000000 0.000000 0.000000 194 202 201 255
1.017094 0.370629 0.413000 -1.000000 0.000000 0.000000 156 163 162 255
1.017094 -0.259371 0.696500 -1.000000 0.000000 0.000000 213 222 221 255
1.017094 -0.259371 0.413000 -1.000000 0.000000 0.000000 213 222 221 255
1.017094 -0.259371 0.696500 -0.000000 1.000000 0.000000 213 222 221 255
1.017094 -0.259371 0.413000 -0.000000 1.000000 0.000000 213 222 221 255
0.038844 -0.259371 0.696500 -0.000000 1.000000 0.000000 213 222 221 255
0.038844 -0.259371 0.413000 0.000000 1.000000 -0.000000 213 222 221 255
1.017094 -0.259371 0.413000 -0.000000 0.000000 1.000000 213 222 221 255
1.017094 0.370629 0.413000 -0.000000 0.000000 1.000000 156 163 162 255
0.038844 -0.259371 0.413000 -0.000000 0.000000 1.000000 213 222 221 255
0.038844 0.370629 0.413000 -0.000000 0.000000 1.000000 100 104 103 255
1.017105 -0.259381 0.696775 -0.000000 0.999342 0.036279 213 222 221 255
1.017094 -0.259371 0.696500 -0.000000 0.999342 0.036279 213 222 221 255
0.038844 -0.259371 0.696500 -0.000000 0.999342 0.036279 213 222 221 255
1.017105 -0.259381 0.696775 -0.000024 0.992776 0.119981 213 222 221 255
0.038844 -0.259371 0.696500 -0.000024 0.992776 0.119981 213 222 221 255
1.017137 -0.259414 0.697048 -0.000024 0.992776 0.119981 213 222 221 255
0.038844 -0.259371 0.696500 0.000024 0.999342 0.036280 213 222 221 255
0.038833 -0.259381 0.696775 0.000024 0.999342 0.036280 213 222 221 255
1.017137 -0.259414 0.697048 0.000024 0.999342 0.036280 211 219 218 255
1.017137 -0.259414 0.697048 0.000000 0.992776 0.119979 211 219 218 255
0.038833 -0.259381 0.696775 0.000000 0.992776 0.119979 213 222 221 255
0.038801 -0.259414 0.697048 0.000000 0.992776 0.119979 213 222 221 255
1.017137 -0.259414 0.697048 -0.000000 0.981125 0.193377 213 222 221 255
0.038801 -0.259414 0.697048 -0.000000 0.981125 0.193377 213 222 221 255
1.017191 -0.259467 0.697317 -0.000000 0.981125 0.193377 213 222 221 255
1.017191 -0.259467 0.697317 -0.000023 0.962222 0.272268 213 222 221 255
0.038801 -0.259414 0.697048 -0.000023 0.962222 0.272268 213 222 221 255
1.017265 -0.259542 0.697582 -0.000023 0.962222 0.272268 213 222 221 255
0.038801 -0.259414 0.697048 0.000023 0.981124 0.193381 213 222 221 255
0.038747 -0.259467 0.697317 0.000023 0.981124 0.193381 213 222 221 255
1.017265 -0.259542 0.697582 0.000023 0.981124 0.193381 210 219 218 255
1.017265 -0.259542 0.697582 0.000000 0.962223 0.272262 210 219 218 255
0.038747 -0.259467 0.697317 0.000000 0.962223 0.272262 213 222 221 255
0.038673 -0.259542 0.697582 0.000000 0.962223 0.272262 213 222 221 255
1.017265 -0.259542 0.697582 -0.000000 0.937964 0.346733 213 222 221 255
0.038673 -0.259542 0.697582 -0.000000 0.937964 0.346733 213 222 221 255
1.017360 -0.259637 0.697839 -0.000000 0.937964 0.346733 213 222 221 255
1.017360 -0.259637 0.697839 -0.000022 0.908465 0.417960 213 222 221 255
0.038673 -0.259542 0.697582 -0.000022 0.908465 0.417960 213 222 221 255
1.017475 -0.259752 0.698089 -0.000022 0.908465 0.417960 213 222 221 255
0.038463 -0.259752 0.698089 0.000023 0.873106 0.487530 213 222 221 255
0.038328 -0.259886 0.698329 0.000023 0.873106 0.487530 213 222 221 255
1.017762 -0.260039 0.698557 0.000023 0.873106 0.487530 213 222 221 255
0.038673 -0.259542 0.697582 0.000022 0.937961 0.346740 213 222 221 255
0.038577 -0.259637 0.697839 0.000022 0.937961 0.346740 213 222 221 255
1.017475 -0.259752 0.698089 0.000022 0.937961 0.346740 213 222 221 255
1.017475 -0.259752 0.698089 0.000000 0.908469 0.417952 213 222 221 255
0.038577 -0.259637 0.697839 0.000000 0.908469 0.417952 213 222 221 255
0.038463 -0.259752 0.698089 0.000000 0.908469 0.417952 213 222 221 255
1.017475 -0.259752 0.698089 -0.000000 0.873112 0.487520 213 222 221 255
0.038463 -0.259752 0.698089 -0.000000 0.873112 0.487520 213 222 221 255
1.017610 -0.259886 0.698329 -0.000000 0.873112 0.487520 213 222 221 255
1.017610 -0.259886 0.698329 -0.000023 0.830403 0.557163 213 222 221 255
0.038463 -0.259752 0.698089 -0.000023 0.830403 0.557163 213 222 221 255
1.017762 -0.260039 0.698557 -0.000023 0.830403 0.557163 213 222 221 255
0.038328 -0.259886 0.698329 0.000000 0.830410 0.557152 213 222 221 255
0.038175 -0.260039 0.698557 0.000000 0.830410 0.557152 213 222 221 255
1.017762 -0.260039 0.698557 0.000000 0.830410 0.557152 213 222 221 255
1.017762 -0.260039 0.698557 -0.000000 0.760415 0.649438 213 222 221 255
0.038175 -0.260039 0.698557 -0.000000 0.760415 0.649438 213 222 221 255
0.037819 -0.260396 0.698975 -0.000000 0.760415 0.649438 213 222 221 255
1.018119 -0.260396 0.698975 0.000000 0.760415 0.649438 213 222 221 255
1.018119 -0.260396 0.698975 -0.000000 0.650317 0.759663 213 222 221 255
0.037819 -0.260396 0.698975 -0.000000 0.650317 0.759663 213 222 221 255
0.037401 -0.260813 0.699332 -0.000000 0.650317 0.759663 213 222 221 255
1.018537 -0.260813 0.699332 0.000000 0.650317 0.759663 213 222 221 255
1.018537 -0.260813 0.699332 -0.000000 0.520618 0.853790 213 222 221 255
0.037401 -0.260813 0.699332 -0.000000 0.520618 0.853790 213 222 221 255
0.036933 -0.261282 0.699618 -0.000000 0.520618 0.853790 213 222 221 255
1.019005 -0.261282 0.699618 0.000000 0.520618 0.853790 213 222 221 255
1.019005 -0.261282 0.699618 -0.000000 0.384230 0.923237 213 222 221 255
0.036933 -0.261282 0.699618 -0.000000 0.384230 0.923237 213 222 221 255
0.036425 -0.261789 0.699829 -0.000000 0.384230 0.923237 213 222 221 255
1.019513 -0.261789 0.699829 0.000000 0.384230 0.923237 213 222 221 255
1.019513 -0.261789 0.699829 -0.000000 0.233151 0.972440 213 222 221 255
0.036425 -0.261789 0.699829 -0.000000 0.233151 0.972440 213 222 221 255
0.035891 -0.262323 0.699957 -0.000000 0.233151 0.972440 213 222 221 255
1.020047 -0.262323 0.699957 0.000000 0.233151 0.972440 213 222 221 255
1.020047 -0.262323 0.699957 -0.000000 0.078181 0.996939 213 222 221 255
0.035891 -0.262323 0.699957 -0.000000 0.078181 0.996939 213 222 221 255
0.035344 -0.262871 0.700000 -0.000000 0.078181 0.996939 213 222 221 255
1.020594 -0.262871 0.700000 0.000000 0.078181 0.996939 213 222 221 255
1.017105 0.370640 0.696775 -0.999206 0.000000 0.039847 194 202 201 255
1.017094 0.370629 0.696500 -0.999206 0.000000 0.039847 194 202 201 255
1.017094 -0.259371 0.696500 -0.999206 0.000000 0.039847 213 222 221 255
1.017105 0.370640 0.696775 -0.993171 -0.000034 0.116669 194 202 201 255
1.017094 -0.259371 0.696500 -0.993171 -0.000034 0.116669 213 222 221 255
1.017137 0.370673 0.697048 -0.993171 -0.000034 0.116669 194 202 201 255
1.017094 -0.259371 0.696500 -0.999206 0.000034 0.039848 213 222 221 255
1.017105 -0.259381 0.696775 -0.999206 0.000034 0.039848 213 222 221 255
1.017137 0.370673 0.697048 -0.999206 0.000034 0.039848 194 202 201 255
1.017137 0.370673 0.697048 -0.993171 0.000000 0.116665 194 202 201 255
1.017105 -0.259381 0.696775 -0.993171 0.000000 0.116665 213 222 221 255
1.017137 -0.259414 0.697048 -0.993171 0.000000 0.116665 213 222 221 255
1.017137 0.370673 0.697048 -0.980438 0.000000 0.196826 194 202 201 255
1.017137 -0.259414 0.697048 -0.980438 0.000000 0.196826 213 222 221 255
1.017191 0.370726 0.697317 -0.980438 0.000000 0.196826 194 202 201 255
1.017191 0.370726 0.697317 -0.963236 -0.000032 0.268658 194 202 201 255
1.017137 -0.259414 0.697048 -0.963236 -0.000032 0.268658 213 222 221 255
1.017265 0.370801 0.697582 -0.963236 -0.000032 0.268658 193 201 200 255
1.017137 -0.259414 0.697048 -0.980437 0.000032 0.196832 213 222 221 255
1.017191 -0.259467 0.697317 -0.980437 0.000032 0.196832 213 222 221 255
1.017265 0.370801 0.697582 -0.980437 0.000032 0.196832 193 201 200 255
1.017265 0.370801 0.697582 -0.963238 0.000000 0.268649 193 201 200 255
1.017191 -0.259467 0.697317 -0.963238 0.000000 0.268649 213 222 221 255
1.017265 -0.259542 0.697582 -0.963238 0.000000 0.268649 213 222 221 255
1.017265 0.370801 0.697582 -0.937964 0.000000 0.346733 193 201 200 255
1.017265 -0.259542 0.697582 -0.937964 0.000000 0.346733 213 222 221 255
1.017360 0.370896 0.697839 -0.937964 0.000000 0.346733 193 201 200 255
1.017360 0.370896 0.697839 -0.908422 -0.000034 0.418054 193 201 200 255
1.017265 -0.259542 0.697582 -0.908422 -0.000034 0.418054 213 222 221 255
1.017475 0.371011 0.698089 -0.908422 -0.000034 0.418054 193 201 200 255
1.017475 -0.259752 0.698089 -0.871626 0.000033 0.490172 213 222 221 255
1.017610 -0.259886 0.698329 -0.871626 0.000033 0.490172 213 222 221 255
1.017762 0.371298 0.698557 -0.871626 0.000033 0.490172 192 200 199 255
1.017265 -0.259542 0.697582 -0.937960 0.000034 0.346744 213 222 221 255
1.017360 -0.259637 0.697839 -0.937960 0.000034 0.346744 213 222 221 255
1.017475 0.371011 0.698089 -0.937960 0.000034 0.346744 193 201 200 255
1.017475 0.371011 0.698089 -0.908428 0.000000 0.418041 193 201 200 255
1.017360 -0.259637 0.697839 -0.908428 0.000000 0.418041 213 222 221 255
1.017475 -0.259752 0.698089 -0.908428 0.000000 0.418041 213 222 221 255
1.017475 0.371011 0.698089 -0.871633 0.000000 0.490158 193 201 200 255
1.017475 -0.259752 0.698089 -0.871633 0.000000 0.490158 213 222 221 255
1.017610 0.371145 0.698329 -0.871633 0.000000 0.490158 193 201 200 255
1.017610 0.371145 0.698329 -0.832107 -0.000033 0.554615 193 201 200 255
1.017475 -0.259752 0.698089 -0.832107 -0.000033 0.554615 213 222 221 255
1.017762 0.371298 0.698557 -0.832107 -0.000033 0.554615 192 200 199 255
1.017610 -0.259886 0.698329 -0.832117 0.000000 0.554600 213 222 221 255
1.017762 -0.260039 0.698557 -0.832117 0.000000 0.554600 213 222 221 255
1.017762 0.371298 0.698557 -0.832117 0.000000 0.554600 192 200 199 255
1.017762 0.371298 0.698557 -0.760388 0.000000 0.649469 192 200 199 255
1.017762 -0.260039 0.698557 -0.760388 0.000000 0.649469 213 222 221 255
1.018119 -0.260396 0.698975 -0.760388 0.000000 0.649469 213 222 221 255
1.018119 0.371655 0.698975 -0.760388 0.000000 0.649469 192 199 198 255
1.018119 0.371655 0.698975 -0.649353 0.000000 0.760487 192 199 198 255
1.018119 -0.260396 0.698975 -0.649353 0.000000 0.760487 213 222 221 255
1.018537 -0.260813 0.699332 -0.649353 0.000000 0.760487 213 222 221 255
1.018537 0.372072 0.699332 -0.649353 0.000000 0.760487 191 199 198 255
1.018537 0.372072 0.699332 -0.521512 0.000000 0.853244 191 199 198 255
1.018537 -0.260813 0.699332 -0.521512 0.000000 0.853244 213 222 221 255
1.019005 -0.261282 0.699618 -0.521512 0.000000 0.853244 213 222 221 255
1.019005 0.372540 0.699618 -0.521512 0.000000 0.853244 191 198 197 255
1.019005 0.372540 0.699618 -0.383538 0.000000 0.923525 191 198 197 255
1.019005 -0.261282 0.699618 -0.383538 0.000000 0.923525 213 222 221 255
1.019513 -0.261789 0.699829 -0.383538 0.000000 0.923525 213 222 221 255
1.019513 0.373048 0.699829 -0.383538 0.000000 0.923525 190 198 197 255
1.019513 0.373048 0.699829 -0.233176 0.000000 0.972435 190 198 197 255
1.019513 -0.261789 0.699829 -0.233176 0.000000 0.972435 213 222 221 255
1.020047 -0.262323 0.699957 -0.233176 0.000000 0.972435 213 222 221 255
1.020047 0.373582 0.699957 -0.233176 0.000000 0.972435 190 198 197 255
1.020047 0.373582 0.699957 -0.078316 0.000000 0.996929 190 198 197 255
1.020047 -0.262323 0.699957 -0.078316 0.000000 0.996929 213 222 221 255
1.020594 -0.262871 0.700000 -0.078316 0.000000 0.996929 213 222 221 255
1.020594 0.374129 0.700000 -0.078316 0.000000 0.996929 188 197 196 255
0.038833 0.370640 0.696775 0.993200 -0.000000 0.116424 211 220 219 255
0.038801 0.370673 0.697048 0.993200 -0.000000 0.116424 211 220 219 255
0.038801 -0.259414 0.697048 0.993200 -0.000000 0.116424 213 222 221 255
0.038747 0.370726 0.697317 0.963150 -0.000000 0.268963 211 220 219 255
0.038673 0.370801 0.697582 0.963150 -0.000000 0.268963 211 220 219 255
0.038673 -0.259542 0.697582 0.963150 -0.000000 0.268963 213 222 221 255
0.038577 0.370896 0.697839 0.909854 -0.000000 0.414928 211 220 219 255
0.038463 0.371011 0.698089 0.909854 -0.000000 0.414928 211 220 219 255
0.038463 -0.259752 0.698089 0.909854 -0.000000 0.414928 213 222 221 255
0.038328 0.371145 0.698329 0.830423 -0.000000 0.557133 211 220 219 255
0.038175 0.371298 0.698557 0.830423 -0.000000 0.557133 211 220 219 255
0.038175 -0.260039 0.698557 0.830423 -0.000000 0.557133 213 222 221 255
0.038175 -0.260039 0.698557 0.761316 0.000000 0.648382 213 222 221 255
0.038175 0.371298 0.698557 0.761316 0.000000 0.648382 211 220 219 255
0.037819 0.371655 0.698975 0.761316 0.000000 0.648382 211 220 219 255
0.037819 -0.260396 0.698975 0.761316 -0.000000 0.648382 213 222 221 255
0.037819 -0.260396 0.698975 0.649409 0.000000 0.760439 213 222 221 255
0.037819 0.371655 0.698975 0.649409 0.000000 0.760439 211 220 219 255
0.037401 0.372072 0.699332 0.649409 0.000000 0.760439 211 220 219 255
0.037819 -0.260396 0.698975 0.649410 -0.000000 0.760439 213 222 221 255
0.037401 0.372072 0.699332 0.649410 -0.000000 0.760439 211 220 219 255
0.037401 -0.260813 0.699332 0.649410 -0.000000 0.760439 213 222 221 255
0.037401 -0.260813 0.699332 0.521430 0.000000 0.853294 213 222 221 255
0.037401 0.372072 0.699332 0.521430 0.000000 0.853294 211 220 219 255
0.036933 0.372540 0.699618 0.521430 0.000000 0.853294 211 220 219 255
0.036933 -0.261282 0.699618 0.521430 -0.000000 0.853294 213 222 221 255
0.036933 -0.261282 0.699618 0.383581 0.000000 0.923507 213 222 221 255
0.036933 0.372540 0.699618 0.383581 0.000000 0.923507 211 220 219 255
0.036425 0.373048 0.699829 0.383581 0.000000 0.923507 211 220 219 255
0.036425 -0.261789 0.699829 0.383581 -0.000000 0.923507 213 222 221 255
0.036425 -0.261789 0.699829 0.233151 0.000000 0.972440 213 222 221 255
0.036425 0.373048 0.699829 0.233151 0.000000 0.972440 211 220 219 255
0.035891 0.373582 0.699957 0.233151 0.000000 0.972440 211 220 219 255
0.035891 -0.262323 0.699957 0.233151 -0.000000 0.972440 213 222 221 255
0.035891 -0.262323 0.699957 0.078324 0.000000 0.996928 213 222 221 255
0.035891 0.373582 0.699957 0.078324 0.000000 0.996928 211 220 219 255
0.035344 0.374129 0.700000 0.078324 0.000000 0.996928 211 220 219 255
0.035344 -0.262871 0.700000 0.078324 -0.000000 0.996928 213 222 221 255
0.038328 0.371145 0.698329 0.871538 -0.000034 0.490327 211 220 219 255
0.038175 -0.260039 0.698557 0.871538 -0.000034 0.490327 213 222 221 255
0.038463 0.371011 0.698089 0.871538 -0.000034 0.490327 211 220 219 255
0.038463 0.371011 0.698089 0.830412 0.000034 0.557149 211 220 219 255
0.038175 -0.260039 0.698557 0.830412 0.000034 0.557149 213 222 221 255
0.038328 -0.259886 0.698329 0.830412 0.000034 0.557149 213 222 221 255
0.038463 0.371011 0.698089 0.871547 0.000000 0.490313 211 220 219 255
0.038328 -0.259886 0.698329 0.871547 0.000000 0.490313 213 222 221 255
0.038463 -0.259752 0.698089 0.871547 0.000000 0.490313 213 222 221 255
0.038577 0.370896 0.697839 0.936784 -0.000031 0.349907 211 220 219 255
0.038463 -0.259752 0.698089 0.936784 -0.000031 0.349907 213 222 221 255
0.038673 0.370801 0.697582 0.936784 -0.000031 0.349907 211 220 219 255
0.038673 0.370801 0.697582 0.909849 0.000031 0.414940 211 220 219 255
0.038463 -0.259752 0.698089 0.909849 0.000031 0.414940 213 222 221 255
0.038577 -0.259637 0.697839 0.909849 0.000031 0.414940 213 222 221 255
0.038673 0.370801 0.697582 0.936788 0.000000 0.349897 211 220 219 255
0.038577 -0.259637 0.697839 0.936788 0.000000 0.349897 213 222 221 255
0.038673 -0.259542 0.697582 0.936788 0.000000 0.349897 213 222 221 255
0.038747 0.370726 0.697317 0.980440 -0.000032 0.196819 211 220 219 255
0.038673 -0.259542 0.697582 0.980440 -0.000032 0.196819 213 222 221 255
0.038801 0.370673 0.697048 0.980440 -0.000032 0.196819 211 220 219 255
0.038801 0.370673 0.697048 0.963148 0.000032 0.268972 211 220 219 255
0.038673 -0.259542 0.697582 0.963148 0.000032 0.268972 213 222 221 255
0.038747 -0.259467 0.697317 0.963148 0.000032 0.268972 213 222 221 255
0.038801 0.370673 0.697048 0.980441 0.000000 0.196813 211 220 219 255
0.038747 -0.259467 0.697317 0.980441 0.000000 0.196813 213 222 221 255
0.038801 -0.259414 0.697048 0.980441 0.000000 0.196813 213 222 221 255
0.038833 0.370640 0.696775 0.999201 -0.000033 0.039970 211 220 219 255
0.038801 -0.259414 0.697048 0.999201 -0.000033 0.039970 213 222 221 255
0.038844 0.370629 0.696500 0.999201 -0.000033 0.039970 211 220 219 255
0.038844 0.370629 0.696500 0.993199 0.000033 0.116428 211 220 219 255
0.038801 -0.259414 0.697048 0.993199 0.000033 0.116428 213 222 221 255
0.038833 -0.259381 0.696775 0.993199 0.000033 0.116428 213 222 221 255
0.038844 0.370629 0.696500 0.999201 0.000000 0.039969 211 220 219 255
0.038833 -0.259381 0.696775 0.999201 0.000000 0.039969 213 222 221 255
0.038844 -0.259371 0.696500 0.999201 0.000000 0.039969 213 222 221 255
0.038833 0.370640 0.696775 0.000000 -0.999201 0.039955 211 220 219 255
0.038844 0.370629 0.696500 0.000000 -0.999201 0.039955 211 220 219 255
1.017094 0.370629 0.696500 0.000000 -0.999201 0.039955 194 202 201 255
0.038833 0.370640 0.696775 0.000023 -0.992776 0.119981 211 220 219 255
1.017094 0.370629 0.696500 0.000023 -0.992776 0.119981 100 104 103 255
0.038801 0.370673 0.697048 0.000023 -0.992776 0.119981 211 220 219 255
1.017094 0.370629 0.696500 -0.000023 -0.999201 0.039956 194 202 201 255
1.017105 0.370640 0.696775 -0.000023 -0.999201 0.039956 194 202 201 255
0.038801 0.370673 0.697048 -0.000023 -0.999201 0.039956 211 220 219 255
0.038801 0.370673 0.697048 0.000000 -0.992776 0.119979 211 220 219 255
1.017105 0.370640 0.696775 0.000000 -0.992776 0.119979 194 202 201 255
1.017137 0.370673 0.697048 0.000000 -0.992776 0.119979 194 202 201 255
0.038801 0.370673 0.697048 0.000000 -0.981145 0.193272 211 220 219 255
1.017137 0.370673 0.697048 0.000000 -0.981145 0.193272 194 202 201 255
0.038747 0.370726 0.697317 0.000000 -0.981145 0.193272 211 220 219 255
0.038747 0.370726 0.697317 0.000023 -0.962193 0.272368 211 220 219 255
1.017137 0.370673 0.697048 0.000023 -0.962193 0.272368 100 104 103 255
0.038673 0.370801 0.697582 0.000023 -0.962193 0.272368 211 220 219 255
1.017137 0.370673 0.697048 -0.000023 -0.981144 0.193277 194 202 201 255
1.017191 0.370726 0.697317 -0.000023 -0.981144 0.193277 194 202 201 255
0.038673 0.370801 0.697582 -0.000023 -0.981144 0.193277 211 220 219 255
0.038673 0.370801 0.697582 0.000000 -0.962195 0.272362 211 220 219 255
1.017191 0.370726 0.697317 0.000000 -0.962195 0.272362 194 202 201 255
1.017265 0.370801 0.697582 0.000000 -0.962195 0.272362 193 201 200 255
0.038673 0.370801 0.697582 0.000000 -0.937964 0.346733 211 220 219 255
1.017265 0.370801 0.697582 0.000000 -0.937964 0.346733 100 104 103 255
0.038577 0.370896 0.697839 0.000000 -0.937964 0.346733 211 220 219 255
0.038577 0.370896 0.697839 0.000022 -0.908506 0.417871 211 220 219 255
1.017265 0.370801 0.697582 0.000022 -0.908506 0.417871 100 104 103 255
0.038463 0.371011 0.698089 0.000022 -0.908506 0.417871 211 220 219 255
1.017475 0.371011 0.698089 -0.000023 -0.873060 0.487612 193 201 200 255
1.017610 0.371145 0.698329 -0.000023 -0.873060 0.487612 193 201 200 255
0.038175 0.371298 0.698557 -0.000023 -0.873060 0.487612 211 220 219 255
1.017265 0.370801 0.697582 -0.000022 -0.937961 0.346740 193 201 200 255
1.017360 0.370896 0.697839 -0.000022 -0.937961 0.346740 193 201 200 255
0.038463 0.371011 0.698089 -0.000022 -0.937961 0.346740 211 220 219 255
0.038463 0.371011 0.698089 0.000000 -0.908510 0.417863 211 220 219 255
1.017360 0.370896 0.697839 0.000000 -0.908510 0.417863 193 201 200 255
1.017475 0.371011 0.698089 0.000000 -0.908510 0.417863 193 201 200 255
0.038463 0.371011 0.698089 0.000000 -0.873066 0.487603 211 220 219 255
1.017475 0.371011 0.698089 0.000000 -0.873066 0.487603 193 201 200 255
0.038328 0.371145 0.698329 0.000000 -0.873066 0.487603 211 220 219 255
0.038328 0.371145 0.698329 0.000023 -0.830454 0.557088 211 220 219 255
1.017475 0.371011 0.698089 0.000023 -0.830454 0.557088 193 201 200 255
0.038175 0.371298 0.698557 0.000023 -0.830454 0.557088 211 220 219 255
1.017610 0.371145 0.698329 0.000000 -0.830461 0.557077 193 201 200 255
1.017762 0.371298 0.698557 0.000000 -0.830461 0.557077 192 200 199 255
0.038175 0.371298 0.698557 0.000000 -0.830461 0.557077 211 220 219 255
0.038175 0.371298 0.698557 0.000000 -0.760415 0.649438 211 220 219 255
1.017762 0.371298 0.698557 0.000000 -0.760415 0.649438 192 200 199 255
1.018119 0.371655 0.698975 0.000000 -0.760415 0.649438 192 199 198 255
0.037819 0.371655 0.698975 0.000000 -0.760415 0.649438 211 220 219 255
0.037819 0.371655 0.698975 0.000000 -0.650291 0.759686 211 220 219 255
1.018119 0.371655 0.698975 0.000000 -0.650291 0.759686 192 199 198 255
1.018537 0.372072 0.699332 0.000000 -0.650291 0.759686 191 199 198 255
0.037819 0.371655 0.698975 0.000000 -0.650290 0.759686 211 220 219 255
1.018537 0.372072 0.699332 0.000000 -0.650290 0.759686 191 199 198 255
0.037401 0.372072 0.699332 0.000000 -0.650290 0.759686 211 220 219 255
0.037401 0.372072 0.699332 0.000000 -0.521439 0.853289 211 220 219 255
1.018537 0.372072 0.699332 0.000000 -0.521439 0.853289 191 199 198 255
1.019005 0.372540 0.699618 0.000000 -0.521439 0.853289 191 198 197 255
0.037401 0.372072 0.699332 0.000000 -0.521439 0.853289 211 220 219 255
1.019005 0.372540 0.699618 0.000000 -0.521439 0.853289 191 198 197 255
0.036933 0.372540 0.699618 0.000000 -0.521439 0.853289 211 220 219 255
0.036933 0.372540 0.699618 0.000000 -0.383576 0.923509 211 220 219 255
1.019005 0.372540 0.699618 0.000000 -0.383576 0.923509 191 198 197 255
1.019513 0.373048 0.699829 0.000000 -0.383576 0.923509 190 198 197 255
0.036425 0.373048 0.699829 0.000000 -0.383576 0.923509 211 220 219 255
0.036425 0.373048 0.699829 0.000000 -0.233151 0.972440 211 220 219 255
1.019513 0.373048 0.699829 0.000000 -0.233151 0.972440 190 198 197 255
1.020047 0.373582 0.699957 0.000000 -0.233151 0.972440 190 198 197 255
0.035891 0.373582 0.699957 0.000000 -0.233151 0.972440 211 220 219 255
0.035891 0.373582 0.699957 0.000000 -0.078325 0.996928 211 220 219 255
1.020047 0.373582 0.699957 0.000000 -0.078325 0.996928 190 198 197 255
1.020594 0.374129 0.700000 0.000000 -0.078325 0.996928 188 197 196 255
0.035344 0.374129 0.700000 0.000000 -0.078325 0.996928 211 220 219 255
3 0 1 2
3 2 1 3
3 4 5 6
3 6 5 7
3 8 9 10
3 11 12 13
3 13 12 8
3 13 8 14
3 14 8 10
3 15 16 17
3 17 16 18
3 17 18 19
3 19 18 20
3 19 20 21
3 21 20 22
3 23 24 25
3 25 24 26
3 25 26 27
3 28 29 30
3 31 32 33
3 33 32 34
3 35 36 37
3 23 38 24
3 39 40 41
3 41 40 42
3 43 39 44
3 44 39 41
3 45 46 47
3 47 46 48
3 49 50 51
3 51 50 52
3 53 54 55
3 55 54 56
3 57 58 59
3 59 58 60
3 61 62 63
3 64 65 66
3 66 65 61
3 66 61 67
3 67 61 63
3 68 69 70
3 70 69 71
3 72 73 74
3 74 73 75
3 76 77 78
3 78 77 79
3 80 81 82
3 82 81 83
3 84 85 86
3 86 85 87
3 88 89 90
3 90 89 91
3 92 93 94
3 94 93 95
3 96 97 98
3 98 97 99
3 100 101 102
3 103 104 105
3 106 107 108
3 109 110 111
3 112 113 114
3 115 116 117
3 118 119 120
3 121 122 123
3 124 125 126
3 127 128 129
3 130 131 132
3 133 134 135
3 136 137 138
3 139 140 141
3 142 143 144
3 145 146 147
3 148 149 150
3 148 150 151
3 152 153 154
3 152 154 155
3 156 157 158
3 156 158 159
3 160 161 162
3 160 162 163
3 164 165 166
3 164 166 167
3 168 169 170
3 168 170 171
3 172 173 174
3 175 176 177
3 178 179 180
3 181 182 183
3 184 185 186
3 187 188 189
3 190 191 192
3 193 194 195
3 196 197 198
3 199 200 201
3 202 203 204
3 205 206 207
3 208 209 210
3 211 212 213
3 214 215 216
3 217 218 219
3 220 221 222
3 220 222 223
3 224 225 226
3 224 226 227
3 228 229 230
3 228 230 231
3 232 233 234
3 232 234 235
3 236 237 238
3 236 238 239
3 240 241 242
3 240 242 243
3 244 245 246
3 247 248 249
3 250 251 252
3 253 254 255
3 256 257 258
3 256 258 259
3 260 261 262
3 263 264 265
3 266 267 268
3 266 268 269
3 270 271 272
3 270 272 273
3 274 275 276
3 274 276 277
3 278 279 280
3 278 280 281
3 282 283 284
3 285 286 287
3 288 289 290
3 291 292 293
3 294 295 296
3 297 298 299
3 300 301 302
3 303 304 305
3 306 307 308
3 309 310 311
3 312 313 314
3 315 316 317
3 318 319 320
3 321 322 323
3 324 325 326
3 327 328 329
3 330 331 332
3 333 334 335
3 336 337 338
3 339 340 341
3 342 343 344
3 345 346 347
3 348 349 350
3 351 352 353
3 354 355 356
3 357 358 359
3 360 361 362
3 363 364 365
3 366 367 368
3 366 368 369
3 370 371 372
3 373 374 375
3 376 377 378
3 379 380 381
3 382 383 384
3 382 384 385
3 386 387 388
3 386 388 389
3 390 391 392
3 390 392 393
