ply
format ascii 1.0
comment Created by Blender 2.82 (sub 7) - www.blender.org, source file: ''
element vertex 181
property float x
property float y
property float z
property float nx
property float ny
property float nz
property float s
property float t
property uchar red
property uchar green
property uchar blue
property uchar alpha
element face 152
property list uchar uint vertex_indices
end_header
0.014920 -0.069239 0.020100 0.440443 -0.117161 0.890072 0.030486 0.959121 104 78 59 255
0.011875 0.070323 0.020032 0.380261 0.377117 0.844478 0.314451 -0.054557 104 78 59 255
-0.011801 0.070302 0.020026 -0.380932 0.374035 0.845546 0.557022 -0.062249 105 79 60 255
-0.015557 -0.065373 0.020073 -0.455489 -0.052644 0.888668 0.954859 0.958796 104 78 59 255
-0.015746 0.073614 0.001956 -0.922330 0.235267 -0.306497 -0.006105 0.271444 108 84 67 255
-0.011798 0.070201 -0.004309 -0.380993 0.368114 -0.848109 -0.005812 0.009105 108 83 65 255
-0.020612 -0.063217 0.002112 -0.947172 -0.016419 -0.320231 0.923383 0.282085 104 78 59 255
-0.018171 -0.075746 0.002049 -0.819147 -0.461745 -0.340190 0.031948 0.280761 104 78 59 255
-0.010157 -0.077502 -0.004373 -0.333201 -0.319834 -0.886929 0.169423 0.019936 104 78 59 255
-0.012483 -0.082536 0.002035 -0.609058 -0.720511 -0.331462 0.204209 0.280976 104 78 59 255
0.011758 -0.075588 -0.004218 0.365123 -0.270943 -0.890622 0.881581 0.016988 104 78 59 255
0.018182 -0.075904 0.002016 0.817377 -0.465438 -0.339457 0.963336 0.279251 104 78 59 255
0.012610 -0.082516 0.002001 0.616535 -0.717765 -0.323496 0.796135 0.280680 104 78 59 255
0.018252 -0.075744 0.013679 0.820490 -0.463454 0.334635 0.968070 0.719256 104 78 59 255
0.011508 -0.076047 0.019929 0.364116 -0.290506 0.884854 0.868007 0.978673 104 78 59 255
0.012564 -0.082535 0.013691 0.617176 -0.718894 0.319681 0.795807 0.719028 104 78 59 255
0.015646 -0.067034 -0.004327 0.462111 -0.080233 -0.883175 0.028706 0.012251 104 78 59 255
0.020084 -0.070466 0.001959 0.921415 -0.205817 -0.329508 0.026578 0.278678 104 78 59 255
0.018182 -0.075904 0.002016 0.817377 -0.465438 -0.339457 0.000000 0.278478 104 78 59 255
0.020688 -0.063196 0.002052 0.946623 -0.016175 -0.321848 0.077220 0.278234 104 78 59 255
0.020099 -0.070534 0.013649 0.923643 -0.196326 0.329081 0.026612 0.717978 104 78 59 255
0.014920 -0.069239 0.020100 0.440443 -0.117161 0.890072 0.014572 0.989994 104 78 59 255
0.018252 -0.075744 0.013679 0.820490 -0.463454 0.334635 0.000000 0.719022 104 78 59 255
0.020702 -0.062913 0.013636 0.945677 -0.025513 0.324015 0.077992 0.720427 104 78 59 255
0.015921 -0.060878 0.019782 0.562181 -0.006226 0.826960 0.069668 0.979734 104 78 59 255
0.001312 -0.082868 -0.004253 0.052767 -0.490829 -0.869625 0.539658 1.127317 104 78 59 255
-0.010157 -0.077502 -0.004373 -0.333201 -0.319834 -0.886929 0.329161 1.026408 104 78 59 255
0.015646 -0.067034 -0.004327 0.462111 -0.080233 -0.883175 0.992275 0.949211 104 78 59 255
-0.014772 0.074715 0.013775 -0.250099 0.911130 0.327464 0.967891 0.721680 106 80 62 255
0.011875 0.070323 0.020032 0.380261 0.377117 0.844478 0.013364 1.020020 104 78 59 255
0.015334 0.074715 0.013703 0.498489 0.804712 0.322306 0.008959 0.720259 104 78 60 255
-0.011801 0.070302 0.020026 -0.380932 0.374035 0.845546 0.923977 0.969742 105 79 60 255
0.001312 -0.082868 -0.004253 0.052767 -0.490829 -0.869625 0.545321 0.010491 104 78 59 255
-0.005442 -0.086661 0.001884 -0.327372 -0.885678 -0.329234 0.374573 0.276466 104 78 59 255
-0.004047 -0.082247 -0.004065 -0.210761 -0.508957 -0.834559 0.365435 0.008042 104 78 59 255
0.005440 -0.086707 0.001995 0.313028 -0.900357 -0.302164 0.625579 0.280343 104 78 59 255
0.006487 -0.081003 -0.004065 0.280496 -0.441267 -0.852382 0.706749 0.012000 104 78 59 255
0.000028 -0.087528 0.002018 -0.003601 -0.952391 -0.304758 0.500000 0.280206 104 78 59 255
-0.001890 -0.087501 0.013731 -0.091006 -0.948363 0.303781 0.454948 0.720311 104 78 59 255
0.001035 -0.082940 0.019932 0.058229 -0.494247 0.867336 0.532251 0.990089 104 78 59 255
-0.003689 -0.082235 0.019982 -0.168645 -0.453291 0.875240 0.367938 0.990890 104 78 59 255
0.005523 -0.086661 0.013842 0.309915 -0.897855 0.312662 0.625431 0.723501 104 78 59 255
0.006924 -0.080681 0.019783 0.278848 -0.431288 0.858028 0.723178 0.985270 104 78 59 255
-0.015215 0.074700 0.001916 -0.505417 0.796289 -0.332286 0.985640 0.279358 110 88 74 255
-0.007273 -0.085839 0.013702 -0.407514 -0.856716 0.316080 0.327900 0.719631 104 78 59 255
-0.015557 -0.065373 0.020073 -0.455489 -0.052644 0.888668 0.030077 0.989427 104 78 59 255
-0.013693 -0.072344 0.019950 -0.410565 -0.214789 0.886135 0.034170 0.987763 104 78 59 255
-0.015562 -0.067404 -0.004302 -0.469771 -0.088595 -0.878292 0.073548 0.972645 104 78 59 255
-0.011798 0.070201 -0.004309 -0.380993 0.368114 -0.848109 0.067540 0.012840 108 83 65 255
-0.020019 -0.070533 0.002077 -0.925382 -0.204199 -0.319224 0.973388 0.282019 104 78 59 255
-0.015562 -0.067404 -0.004302 -0.469771 -0.088595 -0.878292 0.973043 0.014727 104 78 59 255
-0.018171 -0.075746 0.002049 -0.819147 -0.461745 -0.340190 1.000000 0.280984 104 78 59 255
-0.015557 -0.065373 0.020073 -0.455489 -0.052644 0.888668 0.959432 0.985773 104 78 59 255
-0.020618 -0.062817 0.013663 -0.946867 -0.015961 0.321146 0.921733 0.724839 104 78 60 255
-0.020004 -0.070466 0.013766 -0.919767 -0.200110 0.337565 0.973421 0.721303 105 79 60 255
0.011827 0.070310 -0.004304 0.376049 0.374737 -0.847407 0.993579 0.009760 104 79 60 255
0.011875 0.070323 0.020032 0.380261 0.377117 0.844478 1.057679 0.992267 104 78 59 255
-0.003689 -0.082235 0.019982 -0.168645 -0.453291 0.875240 0.619177 1.114106 104 78 59 255
-0.015215 0.074700 0.001916 -0.505417 0.796289 -0.332286 -0.051926 0.256398 110 88 74 255
-0.011798 0.070201 -0.004309 -0.380993 0.368114 -0.848109 -0.057508 0.017323 108 83 65 255
0.015843 0.073723 0.013696 0.918638 0.249397 0.306345 1.010674 0.725138 104 78 59 255
0.015334 0.074715 0.013703 0.498489 0.804712 0.322306 1.056109 0.749315 104 78 60 255
-0.011801 0.070302 0.020026 -0.380932 0.374035 0.845546 -0.006120 0.991137 105 79 60 255
0.009803 0.069466 0.007647 0.370983 -0.817896 -0.439711 -0.022710 0.076426 107 82 64 255
-0.009924 0.069462 0.012826 -0.384289 -0.533586 0.753380 0.009271 0.962819 108 85 70 255
-0.010098 0.069534 0.007663 -0.382672 -0.814966 -0.435133 -0.031867 0.095201 222 218 215 255
0.009844 0.069479 0.012803 0.395489 -0.528977 0.750816 0.122953 0.970903 104 78 59 255
-0.038883 0.113415 -0.011878 -0.720206 0.095157 0.687185 0.975770 0.802685 207 195 197 255
0.047458 0.127064 -0.023910 0.767266 -0.049898 0.639363 0.942500 0.737018 208 196 198 255
-0.047714 0.126868 -0.023862 -0.778771 -0.081729 0.621906 0.905263 0.737176 208 196 198 255
0.038937 0.113762 -0.012144 0.719993 0.103916 0.686117 0.876672 0.801180 208 196 198 255
-0.038512 0.113102 -0.017054 -0.498764 -0.718162 -0.485214 0.804589 0.051833 205 193 195 255
-0.021369 0.086518 0.005000 -0.685965 -0.079043 0.723289 0.922421 0.970093 182 173 173 255
-0.047714 0.126868 -0.023862 -0.778771 -0.081729 0.621906 0.739106 0.943193 208 196 198 255
-0.021364 0.086757 -0.000579 -0.524827 -0.637410 -0.564104 0.919487 0.037230 194 186 187 255
-0.010098 0.069534 0.007663 -0.382672 -0.814966 -0.435133 0.995688 0.004530 222 218 215 255
-0.009924 0.069462 0.012826 -0.384289 -0.533586 0.753380 0.995345 0.997109 108 85 70 255
-0.047178 0.132191 -0.025217 -0.115207 0.135960 0.983978 0.734532 0.986901 206 195 197 255
-0.048789 0.132406 -0.025642 -0.831660 -0.005829 0.555223 0.724926 0.922721 208 196 198 255
-0.029128 0.099790 -0.007732 0.467422 -0.237892 -0.851405 0.856130 0.025104 181 173 174 255
-0.045630 0.293474 -0.030488 -0.317545 0.753227 -0.575976 -0.094701 0.056616 208 196 198 255
-0.047943 0.290826 -0.030818 -0.688864 0.320261 -0.650258 -0.061788 0.005683 208 196 198 255
-0.045678 0.293430 -0.025803 -0.322764 0.747917 0.580004 -0.094768 0.864009 208 196 198 255
-0.047919 0.290832 -0.025483 -0.686697 0.319620 0.652882 -0.060268 0.954680 208 196 198 255
-0.047943 0.290826 -0.030818 -0.688864 0.320261 -0.650258 0.081753 0.005021 208 196 198 255
-0.048681 0.131275 -0.030497 -0.696890 -0.177953 -0.694723 0.732554 0.046282 208 196 198 255
-0.048822 0.282760 -0.030476 -0.833247 0.033021 -0.551866 0.004577 0.005374 208 196 198 255
-0.047178 0.132191 -0.025217 -0.115207 0.135960 0.983978 0.873751 0.732463 206 195 197 255
-0.047674 0.127004 -0.029348 -0.611713 -0.499527 -0.613392 0.738376 0.006718 208 196 198 255
-0.010098 0.069534 0.007663 -0.382672 -0.814966 -0.435133 0.039992 0.999200 222 218 215 255
-0.021364 0.086757 -0.000579 -0.524827 -0.637410 -0.564104 0.079515 0.933546 194 186 187 255
0.009803 0.069466 0.007647 0.370983 -0.817896 -0.439711 0.042112 0.999200 107 82 64 255
0.031800 0.102584 -0.004085 0.716819 0.004364 0.697195 0.978277 0.845657 208 196 198 255
-0.029225 0.100154 -0.002355 -0.425764 0.276894 0.861415 0.912387 0.857494 204 193 195 255
0.038937 0.113762 -0.012144 0.719993 0.103916 0.686117 0.801662 0.960063 208 196 198 255
0.031800 0.102584 -0.004085 0.716819 0.004364 0.697195 0.847839 0.879726 208 196 198 255
0.047622 0.127046 -0.029331 0.626545 -0.496109 -0.601032 0.738469 0.015200 208 196 198 255
0.023064 0.089552 0.003560 0.656148 -0.028718 0.754051 0.896820 0.905778 201 189 190 255
0.009844 0.069479 0.012803 0.395489 -0.528977 0.750816 0.994944 0.997111 104 78 59 255
0.023064 0.089552 0.003560 0.656148 -0.028718 0.754051 0.905451 0.978559 201 189 190 255
0.019720 0.084597 0.000471 0.511338 -0.634205 -0.579913 0.935109 0.027656 198 186 186 255
0.029717 0.099796 -0.007677 0.516373 -0.677358 -0.523942 0.859513 0.044095 208 196 198 255
0.045494 0.293460 -0.030485 0.319407 0.752312 -0.576159 0.938324 0.013205 208 196 198 255
0.047790 0.290825 -0.030822 0.688589 0.320750 -0.650288 0.818954 0.009323 208 196 198 255
-0.045630 0.293474 -0.030488 -0.317545 0.753227 -0.575976 0.855382 0.019876 208 196 198 255
-0.009062 -0.078831 0.019802 -0.345408 -0.376232 0.859706 0.212073 0.981358 104 78 59 255
-0.012531 -0.082514 0.013725 -0.623066 -0.708518 0.331248 0.203840 0.719334 104 78 59 255
0.048548 0.131454 -0.030498 0.704581 -0.169774 -0.688986 0.732674 0.054351 208 196 198 255
0.047790 0.290825 -0.030822 0.688589 0.320750 -0.650288 0.007667 0.002073 208 196 198 255
0.048657 0.282913 -0.030492 0.829737 0.035615 -0.556993 0.003293 0.004455 208 196 198 255
0.048525 0.132206 -0.025316 0.752098 0.006470 0.658986 0.727734 0.938185 208 196 198 255
0.047458 0.127064 -0.023910 0.767266 -0.049898 0.639363 0.739089 0.939360 208 196 198 255
0.038714 0.113688 -0.017542 0.468093 -0.726676 -0.502762 0.801823 0.045224 208 196 198 255
0.048525 0.132206 -0.025316 0.752098 0.006470 0.658986 0.959220 0.733578 208 196 198 255
0.047782 0.290761 -0.025443 0.686666 0.314859 0.655202 0.984545 0.091731 208 196 198 255
0.045506 0.293454 -0.025800 0.323588 0.751549 0.574786 0.859382 0.980471 208 196 198 255
0.038714 0.113688 -0.017542 0.468093 -0.726676 -0.502762 0.096976 0.809152 208 196 198 255
0.029717 0.099796 -0.007677 0.516373 -0.677358 -0.523942 0.081449 0.856615 208 196 198 255
-0.029128 0.099790 -0.007732 0.467422 -0.237892 -0.851405 0.112051 0.860089 181 173 174 255
0.011827 0.070310 -0.004304 0.376049 0.374737 -0.847407 0.962988 0.020004 104 79 60 255
-0.015562 -0.067404 -0.004302 -0.469771 -0.088595 -0.878292 0.011122 0.013253 104 78 59 255
0.015646 -0.067034 -0.004327 0.462111 -0.080233 -0.883175 0.954824 0.010261 104 78 59 255
-0.018102 -0.075903 0.013710 -0.819269 -0.461196 0.340617 0.036639 0.720730 104 78 59 255
-0.018102 -0.075903 0.013710 -0.819269 -0.461196 0.340617 1.000000 0.721501 104 78 59 255
0.014920 -0.069239 0.020100 0.440443 -0.117161 0.890072 0.965247 0.987720 104 78 59 255
0.011827 0.070310 -0.004304 0.376049 0.374737 -0.847407 0.374740 0.019865 104 79 60 255
0.014852 0.074703 0.001927 0.247444 0.914060 -0.321268 0.037862 0.276786 123 111 101 255
0.015784 0.074170 0.001901 0.801202 0.499832 -0.328959 1.041258 0.302364 107 83 65 255
-0.013693 -0.072344 0.019950 -0.410565 -0.214789 0.886135 0.999532 0.993626 104 78 59 255
0.001312 -0.082868 -0.004253 0.052767 -0.490829 -0.869625 0.685553 0.005112 104 78 59 255
0.011827 0.070310 -0.004304 0.376049 0.374737 -0.847407 0.672812 -0.008568 104 79 60 255
-0.011798 0.070201 -0.004309 -0.380993 0.368114 -0.848109 0.956096 -0.018746 108 83 65 255
0.001035 -0.082940 0.019932 0.058229 -0.494247 0.867336 0.680300 0.994900 104 78 59 255
-0.004047 -0.082247 -0.004065 -0.210761 -0.508957 -0.834559 0.370647 1.127434 104 78 59 255
0.001035 -0.082940 0.019932 0.058229 -0.494247 0.867336 0.465981 1.127210 104 78 59 255
-0.015723 0.074194 0.013727 -0.805353 0.501755 0.315622 -0.016973 0.684886 105 80 62 255
0.011875 0.070323 0.020032 0.380261 0.377117 0.844478 0.994179 0.990139 104 78 59 255
0.014852 0.074703 0.001927 0.247444 0.914060 -0.321268 1.073544 0.252493 123 111 101 255
0.015784 0.074170 0.001901 0.801202 0.499832 -0.328959 1.037969 0.247421 107 83 65 255
0.011827 0.070310 -0.004304 0.376049 0.374737 -0.847407 1.078634 0.008051 104 79 60 255
-0.014772 0.074715 0.013775 -0.250099 0.911130 0.327464 -0.073104 0.749486 106 80 62 255
-0.015723 0.074194 0.013727 -0.805353 0.501755 0.315622 -0.037344 0.745726 105 80 62 255
-0.011801 0.070302 0.020026 -0.380932 0.374035 0.845546 -0.051140 0.992178 105 79 60 255
0.015334 0.074715 0.013703 0.498489 0.804712 0.322306 1.056266 0.704506 104 78 60 255
0.014852 0.074703 0.001927 0.247444 0.914060 -0.321268 1.078500 0.313256 123 111 101 255
-0.015723 0.074194 0.013727 -0.805353 0.501755 0.315622 1.002048 0.679308 105 80 62 255
-0.014772 0.074715 0.013775 -0.250099 0.911130 0.327464 0.991312 0.680446 106 80 62 255
-0.015746 0.073614 0.001956 -0.922330 0.235267 -0.306497 1.005248 0.278440 108 84 67 255
-0.048815 0.282957 -0.025818 -0.832881 0.036164 0.552202 0.012451 0.929594 208 196 198 255
-0.038883 0.113415 -0.011878 -0.720206 0.095157 0.687185 0.802760 0.952122 207 195 197 255
-0.021369 0.086518 0.005000 -0.685965 -0.079043 0.723289 0.979206 0.938567 182 173 173 255
-0.047943 0.290826 -0.030818 -0.688864 0.320261 -0.650258 0.989299 0.002499 208 196 198 255
-0.047919 0.290832 -0.025483 -0.686697 0.319620 0.652882 0.003404 0.997690 208 196 198 255
-0.048815 0.282957 -0.025818 -0.832881 0.036164 0.552202 0.062695 0.932615 208 196 198 255
-0.048822 0.282760 -0.030476 -0.833247 0.033021 -0.551866 -0.022224 0.074350 208 196 198 255
-0.047426 0.139492 -0.030913 -0.149998 -0.014557 -0.988556 0.674208 0.004350 208 196 198 255
-0.047426 0.139492 -0.030913 -0.149998 -0.014557 -0.988556 0.035758 0.732152 208 196 198 255
-0.047943 0.290826 -0.030818 -0.688864 0.320261 -0.650258 0.483184 0.022903 208 196 198 255
0.047790 0.290825 -0.030822 0.688589 0.320750 -0.650288 0.371136 0.071404 208 196 198 255
0.044273 0.139776 -0.030947 0.042665 -0.017457 -0.998932 0.060868 0.729767 208 196 198 255
-0.029225 0.100154 -0.002355 -0.425764 0.276894 0.861415 0.853696 0.979991 204 193 195 255
0.019720 0.084597 0.000471 0.511338 -0.634205 -0.579913 0.044779 0.933941 198 186 186 255
-0.047919 0.290832 -0.025483 -0.686697 0.319620 0.652882 0.888319 0.028570 208 196 198 255
-0.045678 0.293430 -0.025803 -0.322764 0.747917 0.580004 0.946078 0.988462 208 196 198 255
-0.038512 0.113102 -0.017054 -0.498764 -0.718162 -0.485214 0.078113 0.794473 205 193 195 255
-0.047674 0.127004 -0.029348 -0.611713 -0.499527 -0.613392 0.037441 0.731843 208 196 198 255
-0.047919 0.290832 -0.025483 -0.686697 0.319620 0.652882 0.911507 0.994421 208 196 198 255
0.047782 0.290761 -0.025443 0.686666 0.314859 0.655202 0.979770 0.997743 208 196 198 255
0.048709 0.282548 -0.025840 0.851131 0.033845 0.523820 0.062826 0.934691 208 196 198 255
0.009803 0.069466 0.007647 0.370983 -0.817896 -0.439711 0.999200 0.147241 107 82 64 255
0.047782 0.290761 -0.025443 0.686666 0.314859 0.655202 0.024331 0.996367 208 196 198 255
0.045494 0.293460 -0.030485 0.319407 0.752312 -0.576159 -0.094726 0.071746 208 196 198 255
0.045506 0.293454 -0.025800 0.323588 0.751549 0.574786 -0.094669 0.993840 208 196 198 255
0.047790 0.290825 -0.030822 0.688589 0.320750 -0.650288 -0.059782 0.118025 208 196 198 255
0.047782 0.290761 -0.025443 0.686666 0.314859 0.655202 -0.059000 0.921308 208 196 198 255
0.048709 0.282548 -0.025840 0.851131 0.033845 0.523820 0.014392 0.932190 208 196 198 255
0.048657 0.282913 -0.030492 0.829737 0.035615 -0.556993 -0.025043 0.052752 208 196 198 255
0.044273 0.139776 -0.030947 0.042665 -0.017457 -0.998932 0.728869 0.000832 208 196 198 255
0.047622 0.127046 -0.029331 0.626545 -0.496109 -0.601032 0.037276 0.731856 208 196 198 255
-0.048681 0.131275 -0.030497 -0.696890 -0.177953 -0.694723 0.036446 0.732003 208 196 198 255
0.048548 0.131454 -0.030498 0.704581 -0.169774 -0.688986 0.033787 0.731673 208 196 198 255
3 0 1 2
3 0 2 3
3 4 5 6
3 7 8 9
3 10 11 12
3 13 14 15
3 16 17 18
3 16 19 17
3 20 21 22
3 23 21 20
3 21 23 24
3 25 26 27
3 28 29 30
3 31 29 28
3 32 33 34
3 35 32 36
3 33 32 37
3 38 39 40
3 41 39 38
3 39 41 42
3 28 30 43
3 33 38 44
3 33 37 38
3 45 46 40
3 47 48 26
3 49 50 51
3 6 50 49
3 52 53 54
3 16 55 19
3 56 24 23
3 57 0 3
3 20 19 23
3 17 19 20
3 4 58 59
3 60 61 56
3 50 6 5
3 52 62 53
3 63 64 65
3 64 63 66
3 67 68 69
3 68 67 70
3 71 72 73
3 74 72 71
3 72 75 76
3 73 77 78
3 79 74 71
3 80 81 82
3 83 82 81
3 84 85 86
3 87 69 68
3 88 71 73
3 89 90 91
3 92 70 93
3 94 95 96
3 93 97 92
3 98 97 76
3 95 99 98
3 95 100 101
3 102 103 104
4 40 105 106 44
3 107 108 109
3 96 110 111
3 95 101 112
3 87 113 114
3 115 102 104
3 116 117 118
3 26 48 119
3 34 33 8
3 9 8 33
3 7 120 8
3 36 10 12
3 10 121 11
3 12 35 36
4 122 106 105 46
4 49 51 123 54
3 15 42 41
3 15 14 42
3 13 124 14
3 125 43 126
3 35 37 32
3 44 38 40
4 6 49 54 53
4 106 9 33 44
4 9 106 122 7
4 15 12 11 13
4 12 15 41 35
4 127 60 23 19
4 37 35 41 38
3 43 30 126
4 54 123 128 52
3 129 121 10
3 129 10 36
3 43 130 131
3 124 132 14
3 132 42 14
3 40 46 105
3 133 26 25
3 134 0 57
3 26 119 27
4 20 22 18 17
3 127 19 55
4 53 135 4 6
3 21 24 136
3 137 138 139
3 140 141 142
3 127 143 60
3 127 144 143
3 145 146 43
3 43 147 145
3 141 53 62
3 56 23 60
4 78 85 88 73
3 86 78 148
3 85 78 86
3 70 67 93
3 149 73 72
3 97 150 76
3 97 93 150
3 74 75 72
3 103 151 104
3 152 78 77
3 152 153 78
3 81 154 148
3 83 81 148
3 84 155 85
4 156 157 158 159
3 160 149 72
4 161 90 118 117
3 114 162 87
3 163 115 104
3 118 164 116
3 165 116 164
3 91 90 161
3 115 166 167
3 115 163 166
3 110 107 168
3 107 109 168
3 169 95 98
3 95 169 100
3 110 168 170
3 171 172 173
3 172 174 173
3 175 173 174
3 175 176 173
3 177 108 107
3 68 113 87
3 94 96 111
3 96 107 110
3 96 95 112
3 165 178 116
4 178 165 179 180
4 180 179 156 159
