ply
format ascii 1.0
comment Created by Blender 2.82 (sub 7) - www.blender.org, source file: ''
element vertex 474
property float x
property float y
property float z
property float nx
property float ny
property float nz
property float s
property float t
property uchar red
property uchar green
property uchar blue
property uchar alpha
element face 152
property list uchar uint vertex_indices
end_header
0.010444 -0.049955 0.010050 -0.000181 0.000482 1.000000 0.030486 0.959121 104 78 59 255
0.008313 0.019826 0.010016 -0.000181 0.000482 1.000000 0.314451 -0.054557 104 78 59 255
-0.008261 0.019816 0.010013 -0.000181 0.000482 1.000000 0.557022 -0.062249 105 79 60 255
0.010444 -0.049955 0.010050 -0.000599 0.000370 1.000000 0.030486 0.959121 104 78 59 255
-0.008261 0.019816 0.010013 -0.000599 0.000370 1.000000 0.557022 -0.062249 105 79 60 255
-0.010890 -0.048022 0.010037 -0.000599 0.000370 1.000000 0.954859 0.958796 104 78 59 255
-0.011022 0.021472 0.000978 -0.739569 0.036055 -0.672115 -0.006105 0.271444 108 84 67 255
-0.008259 0.019765 -0.002154 -0.739569 0.036055 -0.672115 -0.005812 0.009105 108 83 65 255
-0.014428 -0.046944 0.001056 -0.739569 0.036055 -0.672115 0.923383 0.282085 104 78 59 255
-0.012720 -0.053208 0.001025 -0.476440 -0.557360 -0.679967 0.031948 0.280761 104 78 59 255
-0.007110 -0.054086 -0.002187 -0.476440 -0.557360 -0.679967 0.169423 0.019936 104 78 59 255
-0.008738 -0.056603 0.001017 -0.476440 -0.557360 -0.679967 0.204209 0.280976 104 78 59 255
0.008231 -0.053129 -0.002109 0.464199 -0.546077 -0.697366 0.881581 0.016988 104 78 59 255
0.012727 -0.053287 0.001008 0.464199 -0.546077 -0.697366 0.963336 0.279251 104 78 59 255
0.008827 -0.056593 0.001001 0.464199 -0.546077 -0.697366 0.796135 0.280680 104 78 59 255
0.012776 -0.053207 0.006839 0.472302 -0.552613 0.686695 0.968070 0.719256 104 78 59 255
0.008056 -0.053359 0.009964 0.472302 -0.552613 0.686695 0.868007 0.978673 104 78 59 255
0.008795 -0.056603 0.006845 0.472302 -0.552613 0.686695 0.795807 0.719028 104 78 59 255
0.010952 -0.048852 -0.002164 0.592551 -0.297996 -0.748386 0.028706 0.012251 104 78 59 255
0.014059 -0.050568 0.000980 0.592551 -0.297996 -0.748386 0.026578 0.278678 104 78 59 255
0.012727 -0.053287 0.001008 0.592551 -0.297996 -0.748386 0.000000 0.278478 104 78 59 255
0.010952 -0.048852 -0.002164 0.689763 -0.071011 -0.720545 0.028706 0.012251 104 78 59 255
0.014482 -0.046933 0.001026 0.689763 -0.071011 -0.720545 0.077220 0.278234 104 78 59 255
0.014059 -0.050568 0.000980 0.689763 -0.071011 -0.720545 0.026578 0.278678 104 78 59 255
0.014069 -0.050602 0.006824 0.604885 -0.295956 0.739272 0.026612 0.717978 104 78 59 255
0.010444 -0.049955 0.010050 0.604885 -0.295956 0.739272 0.014572 0.989994 104 78 59 255
0.012776 -0.053207 0.006839 0.604885 -0.295956 0.739272 0.000000 0.719022 104 78 59 255
0.014491 -0.046792 0.006818 0.655870 -0.071371 0.751492 0.077992 0.720427 104 78 59 255
0.010444 -0.049955 0.010050 0.655870 -0.071371 0.751492 0.014572 0.989994 104 78 59 255
0.014069 -0.050602 0.006824 0.655870 -0.071371 0.751492 0.026612 0.717978 104 78 59 255
0.010444 -0.049955 0.010050 0.660361 -0.082295 0.746426 0.014572 0.989994 104 78 59 255
0.014491 -0.046792 0.006818 0.660361 -0.082295 0.746426 0.077992 0.720427 104 78 59 255
0.011145 -0.045774 0.009891 0.660361 -0.082295 0.746426 0.069668 0.979734 104 78 59 255
0.000918 -0.056769 -0.002127 0.004153 -0.009936 -0.999942 0.539658 1.127317 104 78 59 255
-0.007110 -0.054086 -0.002187 0.004153 -0.009936 -0.999942 0.329161 1.026408 104 78 59 255
0.010952 -0.048852 -0.002164 0.004153 -0.009936 -0.999942 0.992275 0.949211 104 78 59 255
-0.010340 0.022022 0.006888 0.000975 0.821211 0.570624 0.967891 0.721680 106 80 62 255
0.008313 0.019826 0.010016 0.000975 0.821211 0.570624 0.013364 1.020020 104 78 59 255
0.010734 0.022022 0.006851 0.000975 0.821211 0.570624 0.008959 0.720259 104 78 60 255
-0.008261 0.019816 0.010013 -0.000622 0.816740 0.577005 0.923977 0.969742 105 79 60 255
0.008313 0.019826 0.010016 -0.000622 0.816740 0.577005 0.013364 1.020020 104 78 59 255
-0.010340 0.022022 0.006888 -0.000622 0.816740 0.577005 0.967891 0.721680 106 80 62 255
0.000918 -0.056769 -0.002127 -0.080502 -0.787648 -0.610843 0.545321 0.010491 104 78 59 255
-0.003809 -0.058666 0.000942 -0.080502 -0.787648 -0.610843 0.374573 0.276466 104 78 59 255
-0.002833 -0.056459 -0.002032 -0.080502 -0.787648 -0.610843 0.365435 0.008042 104 78 59 255
0.003808 -0.058689 0.000998 0.206400 -0.736917 -0.643702 0.625579 0.280343 104 78 59 255
0.000918 -0.056769 -0.002127 0.206400 -0.736917 -0.643702 0.545321 0.010491 104 78 59 255
0.004541 -0.055837 -0.002032 0.206400 -0.736917 -0.643702 0.706749 0.012000 104 78 59 255
-0.003809 -0.058666 0.000942 -0.078695 -0.789229 -0.609036 0.374573 0.276466 104 78 59 255
0.000918 -0.056769 -0.002127 -0.078695 -0.789229 -0.609036 0.545321 0.010491 104 78 59 255
0.000020 -0.059099 0.001009 -0.078695 -0.789229 -0.609036 0.500000 0.280206 104 78 59 255
-0.001323 -0.059086 0.006866 -0.078191 -0.777750 0.623691 0.454948 0.720311 104 78 59 255
0.000724 -0.056805 0.009966 -0.078191 -0.777750 0.623691 0.532251 0.990089 104 78 59 255
-0.002582 -0.056453 0.009991 -0.078191 -0.777750 0.623691 0.367938 0.990890 104 78 59 255
0.003866 -0.058666 0.006921 0.060547 -0.822750 0.565170 0.625431 0.723501 104 78 59 255
0.000724 -0.056805 0.009966 0.060547 -0.822750 0.565170 0.532251 0.990089 104 78 59 255
-0.001323 -0.059086 0.006866 0.060547 -0.822750 0.565170 0.454948 0.720311 104 78 59 255
0.000724 -0.056805 0.009966 0.209963 -0.722877 0.658304 0.532251 0.990089 104 78 59 255
0.003866 -0.058666 0.006921 0.209963 -0.722877 0.658304 0.625431 0.723501 104 78 59 255
0.004847 -0.055676 0.009891 0.209963 -0.722877 0.658304 0.723178 0.985270 104 78 59 255
-0.010340 0.022022 0.006888 -0.000002 0.999999 -0.001265 0.967891 0.721680 106 80 62 255
0.010734 0.022022 0.006851 -0.000002 0.999999 -0.001265 0.008959 0.720259 104 78 60 255
-0.010650 0.022015 0.000958 -0.000002 0.999999 -0.001265 0.985640 0.279358 110 88 74 255
-0.003809 -0.058666 0.000942 -0.215389 -0.976298 0.021187 0.374573 0.276466 104 78 59 255
-0.001323 -0.059086 0.006866 -0.215389 -0.976298 0.021187 0.454948 0.720311 104 78 59 255
-0.005091 -0.058255 0.006851 -0.215389 -0.976298 0.021187 0.327900 0.719631 104 78 59 255
-0.003809 -0.058666 0.000942 -0.112060 -0.993426 -0.023400 0.374573 0.276466 104 78 59 255
0.000020 -0.059099 0.001009 -0.112060 -0.993426 -0.023400 0.500000 0.280206 104 78 59 255
-0.001323 -0.059086 0.006866 -0.112060 -0.993426 -0.023400 0.454948 0.720311 104 78 59 255
-0.010890 -0.048022 0.010037 -0.020035 -0.025135 0.999483 0.030077 0.989427 104 78 59 255
-0.009585 -0.051507 0.009975 -0.020035 -0.025135 0.999483 0.034170 0.987763 104 78 59 255
-0.002582 -0.056453 0.009991 -0.020035 -0.025135 0.999483 0.367938 0.990890 104 78 59 255
-0.010893 -0.049037 -0.002151 -0.008991 0.000293 -0.999960 0.073548 0.972645 104 78 59 255
-0.008259 0.019765 -0.002154 -0.008991 0.000293 -0.999960 0.067540 0.012840 108 83 65 255
-0.007110 -0.054086 -0.002187 -0.008991 0.000293 -0.999960 0.329161 1.026408 104 78 59 255
-0.014013 -0.050602 0.001038 -0.605851 -0.296718 -0.738175 0.973388 0.282019 104 78 59 255
-0.010893 -0.049037 -0.002151 -0.605851 -0.296718 -0.738175 0.973043 0.014727 104 78 59 255
-0.012720 -0.053208 0.001025 -0.605851 -0.296718 -0.738175 1.000000 0.280984 104 78 59 255
-0.014428 -0.046944 0.001056 -0.694108 -0.075341 -0.715917 0.923383 0.282085 104 78 59 255
-0.010893 -0.049037 -0.002151 -0.694108 -0.075341 -0.715917 0.973043 0.014727 104 78 59 255
-0.014013 -0.050602 0.001038 -0.694108 -0.075341 -0.715917 0.973388 0.282019 104 78 59 255
-0.010890 -0.048022 0.010037 -0.682541 -0.066904 0.727779 0.959432 0.985773 104 78 59 255
-0.014433 -0.046744 0.006832 -0.682541 -0.066904 0.727779 0.921733 0.724839 104 78 60 255
-0.014003 -0.050568 0.006883 -0.682541 -0.066904 0.727779 0.973421 0.721303 105 79 60 255
0.010952 -0.048852 -0.002164 0.662460 0.025914 -0.748649 0.028706 0.012251 104 78 59 255
0.008279 0.019820 -0.002152 0.662460 0.025914 -0.748649 0.993579 0.009760 104 79 60 255
0.014482 -0.046933 0.001026 0.662460 0.025914 -0.748649 0.077220 0.278234 104 78 59 255
0.008313 0.019826 0.010016 0.680684 0.027993 0.732042 1.057679 0.992267 104 78 59 255
0.011145 -0.045774 0.009891 0.680684 0.027993 0.732042 0.069668 0.979734 104 78 59 255
0.014491 -0.046792 0.006818 0.680684 0.027993 0.732042 0.077992 0.720427 104 78 59 255
-0.002582 -0.056453 0.009991 -0.001232 -0.006610 0.999977 0.619177 1.114106 104 78 59 255
0.010444 -0.049955 0.010050 -0.001232 -0.006610 0.999977 0.030486 0.959121 104 78 59 255
-0.010890 -0.048022 0.010037 -0.001232 -0.006610 0.999977 0.954859 0.958796 104 78 59 255
0.014069 -0.050602 0.006824 0.993920 -0.110098 0.001008 0.026612 0.717978 104 78 59 255
0.014482 -0.046933 0.001026 0.993920 -0.110098 0.001008 0.077220 0.278234 104 78 59 255
0.014491 -0.046792 0.006818 0.993920 -0.110098 0.001008 0.077992 0.720427 104 78 59 255
0.014059 -0.050568 0.000980 0.993304 -0.115503 -0.002456 0.026578 0.278678 104 78 59 255
0.014482 -0.046933 0.001026 0.993304 -0.115503 -0.002456 0.077220 0.278234 104 78 59 255
0.014069 -0.050602 0.006824 0.993304 -0.115503 -0.002456 0.026612 0.717978 104 78 59 255
-0.011022 0.021472 0.000978 -0.584944 0.373902 -0.719749 -0.006105 0.271444 108 84 67 255
-0.010650 0.022015 0.000958 -0.584944 0.373902 -0.719749 -0.051926 0.256398 110 88 74 255
-0.008259 0.019765 -0.002154 -0.584944 0.373902 -0.719749 -0.057508 0.017323 108 83 65 255
0.011090 0.021526 0.006848 0.569376 0.403957 0.715981 1.010674 0.725138 104 78 59 255
0.010734 0.022022 0.006851 0.569376 0.403957 0.715981 1.056109 0.749315 104 78 60 255
0.008313 0.019826 0.010016 0.569376 0.403957 0.715981 1.057679 0.992267 104 78 59 255
-0.010893 -0.049037 -0.002151 -0.663413 0.025367 -0.747824 0.973043 0.014727 104 78 59 255
-0.014428 -0.046944 0.001056 -0.663413 0.025367 -0.747824 0.923383 0.282085 104 78 59 255
-0.008259 0.019765 -0.002154 -0.663413 0.025367 -0.747824 -0.005812 0.009105 108 83 65 255
-0.010890 -0.048022 0.010037 -0.665467 0.026050 0.745972 0.959432 0.985773 104 78 59 255
-0.008261 0.019816 0.010013 -0.665467 0.026050 0.745972 -0.006120 0.991137 105 79 60 255
-0.014433 -0.046744 0.006832 -0.665467 0.026050 0.745972 0.921733 0.724839 104 78 60 255
0.006862 0.019398 0.003823 -0.002448 -0.999901 -0.013828 -0.022710 0.076426 107 82 64 255
-0.006947 0.019396 0.006413 -0.002448 -0.999901 -0.013828 0.009271 0.962819 108 85 70 255
-0.007069 0.019432 0.003831 -0.002448 -0.999901 -0.013828 -0.031867 0.095201 222 218 215 255
-0.006947 0.019396 0.006413 0.000616 -0.999997 0.002515 0.009271 0.962819 108 85 70 255
0.006862 0.019398 0.003823 0.000616 -0.999997 0.002515 -0.022710 0.076426 107 82 64 255
0.006891 0.019404 0.006402 0.000616 -0.999997 0.002515 0.122953 0.970903 104 78 59 255
-0.027218 0.041372 -0.005939 -0.000709 0.664800 0.747021 0.975770 0.802685 207 195 197 255
0.033221 0.048197 -0.011955 -0.000709 0.664800 0.747021 0.942500 0.737018 208 196 198 255
-0.033400 0.048099 -0.011931 -0.000709 0.664800 0.747021 0.905263 0.737176 208 196 198 255
0.033221 0.048197 -0.011955 -0.000282 0.662679 0.748903 0.942500 0.737018 208 196 198 255
-0.027218 0.041372 -0.005939 -0.000282 0.662679 0.748903 0.975770 0.802685 207 195 197 255
0.027256 0.041546 -0.006072 -0.000282 0.662679 0.748903 0.876672 0.801180 208 196 198 255
-0.026958 0.041216 -0.008527 -0.710818 -0.699875 -0.070088 0.804589 0.051833 205 193 195 255
-0.014958 0.027924 0.002500 -0.710818 -0.699875 -0.070088 0.922421 0.970093 182 173 173 255
-0.033400 0.048099 -0.011931 -0.710818 -0.699875 -0.070088 0.739106 0.943193 208 196 198 255
-0.014955 0.028043 -0.000289 -0.729331 -0.683495 -0.030196 0.919487 0.037230 194 186 187 255
-0.014958 0.027924 0.002500 -0.729331 -0.683495 -0.030196 0.922421 0.970093 182 173 173 255
-0.026958 0.041216 -0.008527 -0.729331 -0.683495 -0.030196 0.804589 0.051833 205 193 195 255
-0.014958 0.027924 0.002500 -0.734344 -0.678310 0.025189 0.922421 0.970093 182 173 173 255
-0.007069 0.019432 0.003831 -0.734344 -0.678310 0.025189 0.995688 0.004530 222 218 215 255
-0.006947 0.019396 0.006413 -0.734344 -0.678310 0.025189 0.995345 0.997109 108 85 70 255
-0.033400 0.048099 -0.011931 -0.154232 0.264100 0.952084 0.739106 0.943193 208 196 198 255
-0.033025 0.050760 -0.012609 -0.154232 0.264100 0.952084 0.734532 0.986901 206 195 197 255
-0.034152 0.050868 -0.012821 -0.154232 0.264100 0.952084 0.724926 0.922721 208 196 198 255
-0.020390 0.034560 -0.003866 0.690442 0.193239 -0.697100 0.856130 0.025104 181 173 174 255
-0.014955 0.028043 -0.000289 0.690442 0.193239 -0.697100 0.919487 0.037230 194 186 187 255
-0.026958 0.041216 -0.008527 0.690442 0.193239 -0.697100 0.804589 0.051833 205 193 195 255
-0.031941 0.131402 -0.015244 -0.632920 0.774215 -0.001809 -0.094701 0.056616 208 196 198 255
-0.033560 0.130078 -0.015409 -0.632920 0.774215 -0.001809 -0.061788 0.005683 208 196 198 255
-0.031975 0.131380 -0.012901 -0.632920 0.774215 -0.001809 -0.094768 0.864009 208 196 198 255
-0.033543 0.130081 -0.012741 -0.637595 0.770365 0.003147 -0.060268 0.954680 208 196 198 255
-0.031975 0.131380 -0.012901 -0.637595 0.770365 0.003147 -0.094768 0.864009 208 196 198 255
-0.033560 0.130078 -0.015409 -0.637595 0.770365 0.003147 -0.061788 0.005683 208 196 198 255
-0.033560 0.130078 -0.015409 -0.266466 -0.000214 -0.963844 0.081753 0.005021 208 196 198 255
-0.034077 0.050302 -0.015248 -0.266466 -0.000214 -0.963844 0.732554 0.046282 208 196 198 255
-0.034175 0.126045 -0.015238 -0.266466 -0.000214 -0.963844 0.004577 0.005374 208 196 198 255
-0.033025 0.050760 -0.012609 -0.000014 0.246690 0.969095 0.873751 0.732463 206 195 197 255
-0.033400 0.048099 -0.011931 -0.000014 0.246690 0.969095 0.905263 0.737176 208 196 198 255
0.033221 0.048197 -0.011955 -0.000014 0.246690 0.969095 0.942500 0.737018 208 196 198 255
-0.033372 0.048167 -0.014674 -0.723853 -0.689520 -0.024483 0.738376 0.006718 208 196 198 255
-0.026958 0.041216 -0.008527 -0.723853 -0.689520 -0.024483 0.804589 0.051833 205 193 195 255
-0.033400 0.048099 -0.011931 -0.723853 -0.689520 -0.024483 0.739106 0.943193 208 196 198 255
-0.007069 0.019432 0.003831 -0.001574 -0.432837 -0.901471 0.039992 0.999200 222 218 215 255
-0.014955 0.028043 -0.000289 -0.001574 -0.432837 -0.901471 0.079515 0.933546 194 186 187 255
0.006862 0.019398 0.003823 -0.001574 -0.432837 -0.901471 0.042112 0.999200 107 82 64 255
0.022260 0.035957 -0.002043 -0.000214 0.584948 0.811071 0.978277 0.845657 208 196 198 255
0.027256 0.041546 -0.006072 -0.000214 0.584948 0.811071 0.876672 0.801180 208 196 198 255
-0.020457 0.034742 -0.001178 -0.000214 0.584948 0.811071 0.912387 0.857494 204 193 195 255
0.027256 0.041546 -0.006072 0.755297 -0.654773 0.028257 0.801662 0.960063 208 196 198 255
0.022260 0.035957 -0.002043 0.755297 -0.654773 0.028257 0.847839 0.879726 208 196 198 255
0.033335 0.048188 -0.014666 0.755297 -0.654773 0.028257 0.738469 0.015200 208 196 198 255
-0.020457 0.034742 -0.001178 0.003163 0.503780 0.863826 0.912387 0.857494 204 193 195 255
0.016145 0.029441 0.001780 0.003163 0.503780 0.863826 0.896820 0.905778 201 189 190 255
0.022260 0.035957 -0.002043 0.003163 0.503780 0.863826 0.978277 0.845657 208 196 198 255
0.006891 0.019404 0.006402 0.000498 0.417878 0.908503 0.994944 0.997111 104 78 59 255
0.016145 0.029441 0.001780 0.000498 0.417878 0.908503 0.896820 0.905778 201 189 190 255
-0.006947 0.019396 0.006413 0.000498 0.417878 0.908503 0.995345 0.997109 108 85 70 255
0.022260 0.035957 -0.002043 0.753775 -0.649737 0.098313 0.847839 0.879726 208 196 198 255
0.016145 0.029441 0.001780 0.753775 -0.649737 0.098313 0.905451 0.978559 201 189 190 255
0.006891 0.019404 0.006402 0.753775 -0.649737 0.098313 0.994944 0.997111 104 78 59 255
0.022260 0.035957 -0.002043 0.721365 -0.690785 -0.049481 0.847839 0.879726 208 196 198 255
0.013804 0.026963 0.000236 0.721365 -0.690785 -0.049481 0.935109 0.027656 198 186 186 255
0.020802 0.034563 -0.003839 0.721365 -0.690785 -0.049481 0.859513 0.044095 208 196 198 255
0.031846 0.131395 -0.015243 0.000037 0.126905 -0.991915 0.938324 0.013205 208 196 198 255
0.033453 0.130077 -0.015411 0.000037 0.126905 -0.991915 0.818954 0.009323 208 196 198 255
-0.031941 0.131402 -0.015244 0.000037 0.126905 -0.991915 0.855382 0.019876 208 196 198 255
-0.002582 -0.056453 0.009991 -0.316458 -0.684632 0.656607 0.367938 0.990890 104 78 59 255
-0.006343 -0.054751 0.009901 -0.316458 -0.684632 0.656607 0.212073 0.981358 104 78 59 255
-0.008772 -0.056592 0.006863 -0.316458 -0.684632 0.656607 0.203840 0.719334 104 78 59 255
-0.005091 -0.058255 0.006851 -0.316458 -0.684632 0.656607 0.327900 0.719631 104 78 59 255
0.033984 0.050392 -0.015249 0.260985 -0.000225 -0.965343 0.732674 0.054351 208 196 198 255
0.033453 0.130077 -0.015411 0.260985 -0.000225 -0.965343 0.007667 0.002073 208 196 198 255
0.034060 0.126121 -0.015246 0.260985 -0.000225 -0.965343 0.003293 0.004455 208 196 198 255
0.033335 0.048188 -0.014666 0.962458 -0.268215 0.041654 0.738469 0.015200 208 196 198 255
0.033968 0.050768 -0.012658 0.962458 -0.268215 0.041654 0.727734 0.938185 208 196 198 255
0.033221 0.048197 -0.011955 0.962458 -0.268215 0.041654 0.739089 0.939360 208 196 198 255
0.022260 0.035957 -0.002043 0.721847 -0.690221 -0.050311 0.847839 0.879726 208 196 198 255
0.020802 0.034563 -0.003839 0.721847 -0.690221 -0.050311 0.859513 0.044095 208 196 198 255
0.027100 0.041509 -0.008771 0.721847 -0.690221 -0.050311 0.801823 0.045224 208 196 198 255
-0.033025 0.050760 -0.012609 0.000739 0.000806 0.999999 0.873751 0.732463 206 195 197 255
0.033968 0.050768 -0.012658 0.000739 0.000806 0.999999 0.959220 0.733578 208 196 198 255
0.033447 0.130045 -0.012722 0.000739 0.000806 0.999999 0.984545 0.091731 208 196 198 255
0.031854 0.131392 -0.012900 0.000110 0.999999 0.001285 0.859382 0.980471 208 196 198 255
0.031846 0.131395 -0.015243 0.000110 0.999999 0.001285 0.938324 0.013205 208 196 198 255
-0.031941 0.131402 -0.015244 0.000110 0.999999 0.001285 0.855382 0.019876 208 196 198 255
0.027100 0.041509 -0.008771 0.000586 -0.579341 -0.815085 0.096976 0.809152 208 196 198 255
0.020802 0.034563 -0.003839 0.000586 -0.579341 -0.815085 0.081449 0.856615 208 196 198 255
-0.020390 0.034560 -0.003866 0.000586 -0.579341 -0.815085 0.112051 0.860089 181 173 174 255
-0.007110 -0.054086 -0.002187 0.000150 0.000436 -1.000000 0.329161 1.026408 104 78 59 255
-0.008259 0.019765 -0.002154 0.000150 0.000436 -1.000000 0.067540 0.012840 108 83 65 255
0.008279 0.019820 -0.002152 0.000150 0.000436 -1.000000 0.962988 0.020004 104 79 60 255
-0.002833 -0.056459 -0.002032 -0.359548 -0.689017 -0.629270 0.365435 0.008042 104 78 59 255
-0.003809 -0.058666 0.000942 -0.359548 -0.689017 -0.629270 0.374573 0.276466 104 78 59 255
-0.007110 -0.054086 -0.002187 -0.359548 -0.689017 -0.629270 0.169423 0.019936 104 78 59 255
-0.008738 -0.056603 0.001017 -0.292493 -0.674135 -0.678226 0.204209 0.280976 104 78 59 255
-0.007110 -0.054086 -0.002187 -0.292493 -0.674135 -0.678226 0.169423 0.019936 104 78 59 255
-0.003809 -0.058666 0.000942 -0.292493 -0.674135 -0.678226 0.374573 0.276466 104 78 59 255
-0.012720 -0.053208 0.001025 -0.504254 -0.372388 -0.779137 0.031948 0.280761 104 78 59 255
-0.010893 -0.049037 -0.002151 -0.504254 -0.372388 -0.779137 0.011122 0.013253 104 78 59 255
-0.007110 -0.054086 -0.002187 -0.504254 -0.372388 -0.779137 0.169423 0.019936 104 78 59 255
0.004541 -0.055837 -0.002032 0.404471 -0.571377 -0.714095 0.706749 0.012000 104 78 59 255
0.008231 -0.053129 -0.002109 0.404471 -0.571377 -0.714095 0.881581 0.016988 104 78 59 255
0.008827 -0.056593 0.001001 0.404471 -0.571377 -0.714095 0.796135 0.280680 104 78 59 255
0.008231 -0.053129 -0.002109 0.526504 -0.344934 -0.777055 0.881581 0.016988 104 78 59 255
0.010952 -0.048852 -0.002164 0.526504 -0.344934 -0.777055 0.954824 0.010261 104 78 59 255
0.012727 -0.053287 0.001008 0.526504 -0.344934 -0.777055 0.963336 0.279251 104 78 59 255
0.008827 -0.056593 0.001001 0.304823 -0.729213 -0.612644 0.796135 0.280680 104 78 59 255
0.003808 -0.058689 0.000998 0.304823 -0.729213 -0.612644 0.625579 0.280343 104 78 59 255
0.004541 -0.055837 -0.002032 0.304823 -0.729213 -0.612644 0.706749 0.012000 104 78 59 255
-0.012671 -0.053287 0.006855 -0.465587 -0.515010 0.719717 0.036639 0.720730 104 78 59 255
-0.008772 -0.056592 0.006863 -0.465587 -0.515010 0.719717 0.203840 0.719334 104 78 59 255
-0.006343 -0.054751 0.009901 -0.465587 -0.515010 0.719717 0.212073 0.981358 104 78 59 255
-0.009585 -0.051507 0.009975 -0.465587 -0.515010 0.719717 0.034170 0.987763 104 78 59 255
-0.014013 -0.050602 0.001038 -0.896927 -0.442169 0.002813 0.973388 0.282019 104 78 59 255
-0.012720 -0.053208 0.001025 -0.896927 -0.442169 0.002813 1.000000 0.280984 104 78 59 255
-0.012671 -0.053287 0.006855 -0.896927 -0.442169 0.002813 1.000000 0.721501 104 78 59 255
-0.014003 -0.050568 0.006883 -0.896927 -0.442169 0.002813 0.973421 0.721303 105 79 60 255
0.008795 -0.056603 0.006845 0.310582 -0.719264 0.621448 0.795807 0.719028 104 78 59 255
0.004847 -0.055676 0.009891 0.310582 -0.719264 0.621448 0.723178 0.985270 104 78 59 255
0.003866 -0.058666 0.006921 0.310582 -0.719264 0.621448 0.625431 0.723501 104 78 59 255
0.008795 -0.056603 0.006845 0.405561 -0.583818 0.703333 0.795807 0.719028 104 78 59 255
0.008056 -0.053359 0.009964 0.405561 -0.583818 0.703333 0.868007 0.978673 104 78 59 255
0.004847 -0.055676 0.009891 0.405561 -0.583818 0.703333 0.723178 0.985270 104 78 59 255
0.012776 -0.053207 0.006839 0.518418 -0.382950 0.764586 0.968070 0.719256 104 78 59 255
0.010444 -0.049955 0.010050 0.518418 -0.382950 0.764586 0.965247 0.987720 104 78 59 255
0.008056 -0.053359 0.009964 0.518418 -0.382950 0.764586 0.868007 0.978673 104 78 59 255
0.008279 0.019820 -0.002152 0.000092 0.817269 -0.576257 0.374740 0.019865 104 79 60 255
-0.010650 0.022015 0.000958 0.000092 0.817269 -0.576257 0.985640 0.279358 110 88 74 255
0.010396 0.022016 0.000964 0.000092 0.817269 -0.576257 0.037862 0.276786 123 111 101 255
0.003808 -0.058689 0.000998 0.086158 -0.811330 -0.578204 0.625579 0.280343 104 78 59 255
0.000020 -0.059099 0.001009 0.086158 -0.811330 -0.578204 0.500000 0.280206 104 78 59 255
0.000918 -0.056769 -0.002127 0.086158 -0.811330 -0.578204 0.545321 0.010491 104 78 59 255
-0.005091 -0.058255 0.006851 -0.175759 -0.786639 0.591868 0.327900 0.719631 104 78 59 255
-0.001323 -0.059086 0.006866 -0.175759 -0.786639 0.591868 0.454948 0.720311 104 78 59 255
-0.002582 -0.056453 0.009991 -0.175759 -0.786639 0.591868 0.367938 0.990890 104 78 59 255
-0.014428 -0.046944 0.001056 -0.993683 -0.112191 0.002793 0.923383 0.282085 104 78 59 255
-0.014013 -0.050602 0.001038 -0.993683 -0.112191 0.002793 0.973388 0.282019 104 78 59 255
-0.014003 -0.050568 0.006883 -0.993683 -0.112191 0.002793 0.973421 0.721303 105 79 60 255
-0.014433 -0.046744 0.006832 -0.993683 -0.112191 0.002793 0.921733 0.724839 104 78 60 255
-0.008772 -0.056592 0.006863 -0.397168 -0.917674 -0.011497 0.203840 0.719334 104 78 59 255
-0.008738 -0.056603 0.001017 -0.397168 -0.917674 -0.011497 0.204209 0.280976 104 78 59 255
-0.003809 -0.058666 0.000942 -0.397168 -0.917674 -0.011497 0.374573 0.276466 104 78 59 255
-0.005091 -0.058255 0.006851 -0.397168 -0.917674 -0.011497 0.327900 0.719631 104 78 59 255
-0.008738 -0.056603 0.001017 -0.647722 -0.761868 -0.003589 0.204209 0.280976 104 78 59 255
-0.008772 -0.056592 0.006863 -0.647722 -0.761868 -0.003589 0.203840 0.719334 104 78 59 255
-0.012671 -0.053287 0.006855 -0.647722 -0.761868 -0.003589 0.036639 0.720730 104 78 59 255
-0.012720 -0.053208 0.001025 -0.647722 -0.761868 -0.003589 0.031948 0.280761 104 78 59 255
0.008795 -0.056603 0.006845 0.647745 -0.761849 0.003668 0.795807 0.719028 104 78 59 255
0.008827 -0.056593 0.001001 0.647745 -0.761849 0.003668 0.796135 0.280680 104 78 59 255
0.012727 -0.053287 0.001008 0.647745 -0.761849 0.003668 0.963336 0.279251 104 78 59 255
0.012776 -0.053207 0.006839 0.647745 -0.761849 0.003668 0.968070 0.719256 104 78 59 255
0.008827 -0.056593 0.001001 0.385693 -0.922627 0.000210 0.796135 0.280680 104 78 59 255
0.008795 -0.056603 0.006845 0.385693 -0.922627 0.000210 0.795807 0.719028 104 78 59 255
0.003866 -0.058666 0.006921 0.385693 -0.922627 0.000210 0.625431 0.723501 104 78 59 255
0.003808 -0.058689 0.000998 0.385693 -0.922627 0.000210 0.625579 0.280343 104 78 59 255
0.011049 0.021750 0.000951 0.998750 0.049820 -0.004017 1.041258 0.302364 107 83 65 255
0.011090 0.021526 0.006848 0.998750 0.049820 -0.004017 1.010674 0.725138 104 78 59 255
0.014491 -0.046792 0.006818 0.998750 0.049820 -0.004017 0.077992 0.720427 104 78 59 255
0.014482 -0.046933 0.001026 0.998750 0.049820 -0.004017 0.077220 0.278234 104 78 59 255
0.000020 -0.059099 0.001009 0.092043 -0.995669 0.013122 0.500000 0.280206 104 78 59 255
0.003808 -0.058689 0.000998 0.092043 -0.995669 0.013122 0.625579 0.280343 104 78 59 255
0.003866 -0.058666 0.006921 0.092043 -0.995669 0.013122 0.625431 0.723501 104 78 59 255
-0.001323 -0.059086 0.006866 0.092043 -0.995669 0.013122 0.454948 0.720311 104 78 59 255
-0.010650 0.022015 0.000958 -0.000071 0.999999 -0.001015 0.985640 0.279358 110 88 74 255
0.010734 0.022022 0.006851 -0.000071 0.999999 -0.001015 0.008959 0.720259 104 78 60 255
0.010396 0.022016 0.000964 -0.000071 0.999999 -0.001015 0.037862 0.276786 123 111 101 255
-0.014003 -0.050568 0.006883 -0.590147 -0.261782 0.763673 0.973421 0.721303 105 79 60 255
-0.012671 -0.053287 0.006855 -0.590147 -0.261782 0.763673 1.000000 0.721501 104 78 59 255
-0.009585 -0.051507 0.009975 -0.590147 -0.261782 0.763673 0.999532 0.993626 104 78 59 255
-0.010890 -0.048022 0.010037 -0.590147 -0.261782 0.763673 0.959432 0.985773 104 78 59 255
0.000918 -0.056769 -0.002127 0.012783 -0.020873 -0.999700 0.685553 0.005112 104 78 59 255
0.010952 -0.048852 -0.002164 0.012783 -0.020873 -0.999700 0.954824 0.010261 104 78 59 255
0.008231 -0.053129 -0.002109 0.012783 -0.020873 -0.999700 0.881581 0.016988 104 78 59 255
0.000918 -0.056769 -0.002127 0.050864 -0.097400 -0.993945 0.685553 0.005112 104 78 59 255
0.008231 -0.053129 -0.002109 0.050864 -0.097400 -0.993945 0.881581 0.016988 104 78 59 255
0.004541 -0.055837 -0.002032 0.050864 -0.097400 -0.993945 0.706749 0.012000 104 78 59 255
-0.010650 0.022015 0.000958 -0.002579 0.809539 -0.587060 0.985640 0.279358 110 88 74 255
0.008279 0.019820 -0.002152 -0.002579 0.809539 -0.587060 0.672812 -0.008568 104 79 60 255
-0.008259 0.019765 -0.002154 -0.002579 0.809539 -0.587060 0.956096 -0.018746 108 83 65 255
0.010444 -0.049955 0.010050 0.017910 -0.037662 0.999130 0.965247 0.987720 104 78 59 255
0.000724 -0.056805 0.009966 0.017910 -0.037662 0.999130 0.680300 0.994900 104 78 59 255
0.008056 -0.053359 0.009964 0.017910 -0.037662 0.999130 0.868007 0.978673 104 78 59 255
0.000724 -0.056805 0.009966 0.042818 -0.090646 0.994962 0.680300 0.994900 104 78 59 255
0.004847 -0.055676 0.009891 0.042818 -0.090646 0.994962 0.723178 0.985270 104 78 59 255
0.008056 -0.053359 0.009964 0.042818 -0.090646 0.994962 0.868007 0.978673 104 78 59 255
-0.002582 -0.056453 0.009991 -0.062191 -0.084845 0.994451 0.367938 0.990890 104 78 59 255
-0.009585 -0.051507 0.009975 -0.062191 -0.084845 0.994451 0.034170 0.987763 104 78 59 255
-0.006343 -0.054751 0.009901 -0.062191 -0.084845 0.994451 0.212073 0.981358 104 78 59 255
-0.002833 -0.056459 -0.002032 -0.035450 -0.128240 -0.991109 0.370647 1.127434 104 78 59 255
-0.007110 -0.054086 -0.002187 -0.035450 -0.128240 -0.991109 0.329161 1.026408 104 78 59 255
0.000918 -0.056769 -0.002127 -0.035450 -0.128240 -0.991109 0.539658 1.127317 104 78 59 255
0.000724 -0.056805 0.009966 0.005431 -0.019964 0.999786 0.465981 1.127210 104 78 59 255
0.010444 -0.049955 0.010050 0.005431 -0.019964 0.999786 0.030486 0.959121 104 78 59 255
-0.002582 -0.056453 0.009991 0.005431 -0.019964 0.999786 0.619177 1.114106 104 78 59 255
-0.007110 -0.054086 -0.002187 0.001211 0.000215 -0.999999 0.329161 1.026408 104 78 59 255
0.008279 0.019820 -0.002152 0.001211 0.000215 -0.999999 0.962988 0.020004 104 79 60 255
0.010952 -0.048852 -0.002164 0.001211 0.000215 -0.999999 0.992275 0.949211 104 78 59 255
0.014069 -0.050602 0.006824 0.896941 -0.442142 -0.002829 0.026612 0.717978 104 78 59 255
0.012776 -0.053207 0.006839 0.896941 -0.442142 -0.002829 0.000000 0.719022 104 78 59 255
0.012727 -0.053287 0.001008 0.896941 -0.442142 -0.002829 0.000000 0.278478 104 78 59 255
0.014059 -0.050568 0.000980 0.896941 -0.442142 -0.002829 0.026578 0.278678 104 78 59 255
0.011049 0.021750 0.000951 0.734263 0.035954 -0.677913 1.041258 0.302364 107 83 65 255
0.014482 -0.046933 0.001026 0.734263 0.035954 -0.677913 0.077220 0.278234 104 78 59 255
0.008279 0.019820 -0.002152 0.734263 0.035954 -0.677913 0.993579 0.009760 104 79 60 255
-0.014433 -0.046744 0.006832 -0.998757 0.049840 -0.001075 0.921733 0.724839 104 78 60 255
-0.011006 0.021762 0.006863 -0.998757 0.049840 -0.001075 -0.016973 0.684886 105 80 62 255
-0.011022 0.021472 0.000978 -0.998757 0.049840 -0.001075 -0.006105 0.271444 108 84 67 255
-0.014428 -0.046944 0.001056 -0.998757 0.049840 -0.001075 0.923383 0.282085 104 78 59 255
0.010444 -0.049955 0.010050 0.186162 0.006165 0.982500 0.014572 0.989994 104 78 59 255
0.011145 -0.045774 0.009891 0.186162 0.006165 0.982500 0.069668 0.979734 104 78 59 255
0.008313 0.019826 0.010016 0.186162 0.006165 0.982500 0.994179 0.990139 104 78 59 255
0.010396 0.022016 0.000964 0.269103 0.691475 -0.670407 1.073544 0.252493 123 111 101 255
0.011049 0.021750 0.000951 0.269103 0.691475 -0.670407 1.037969 0.247421 107 83 65 255
0.008279 0.019820 -0.002152 0.269103 0.691475 -0.670407 1.078634 0.008051 104 79 60 255
-0.010340 0.022022 0.006888 -0.290370 0.679997 0.673267 -0.073104 0.749486 106 80 62 255
-0.011006 0.021762 0.006863 -0.290370 0.679997 0.673267 -0.037344 0.745726 105 80 62 255
-0.008261 0.019816 0.010013 -0.290370 0.679997 0.673267 -0.051140 0.992178 105 79 60 255
0.011049 0.021750 0.000951 0.812116 0.583265 0.016417 1.041258 0.302364 107 83 65 255
0.010734 0.022022 0.006851 0.812116 0.583265 0.016417 1.056266 0.704506 104 78 60 255
0.011090 0.021526 0.006848 0.812116 0.583265 0.016417 1.010674 0.725138 104 78 59 255
0.011049 0.021750 0.000951 0.377676 0.925662 -0.022585 1.041258 0.302364 107 83 65 255
0.010396 0.022016 0.000964 0.377676 0.925662 -0.022585 1.078500 0.313256 123 111 101 255
0.010734 0.022022 0.006851 0.377676 0.925662 -0.022585 1.056266 0.704506 104 78 60 255
-0.011006 0.021762 0.006863 -0.364914 0.930869 0.017906 1.002048 0.679308 105 80 62 255
-0.010340 0.022022 0.006888 -0.364914 0.930869 0.017906 0.991312 0.680446 106 80 62 255
-0.010650 0.022015 0.000958 -0.364914 0.930869 0.017906 0.985640 0.279358 110 88 74 255
-0.010650 0.022015 0.000958 -0.825353 0.564039 -0.025534 0.985640 0.279358 110 88 74 255
-0.011022 0.021472 0.000978 -0.825353 0.564039 -0.025534 1.005248 0.278440 108 84 67 255
-0.011006 0.021762 0.006863 -0.825353 0.564039 -0.025534 1.002048 0.679308 105 80 62 255
-0.011006 0.021762 0.006863 -0.741928 0.036797 0.669469 -0.037344 0.745726 105 80 62 255
-0.014433 -0.046744 0.006832 -0.741928 0.036797 0.669469 0.921733 0.724839 104 78 60 255
-0.008261 0.019816 0.010013 -0.741928 0.036797 0.669469 -0.006120 0.991137 105 79 60 255
0.008313 0.019826 0.010016 0.741588 0.036627 0.669855 1.057679 0.992267 104 78 59 255
0.014491 -0.046792 0.006818 0.741588 0.036627 0.669855 0.077992 0.720427 104 78 59 255
0.011090 0.021526 0.006848 0.741588 0.036627 0.669855 1.010674 0.725138 104 78 59 255
-0.034152 0.050868 -0.012821 -0.959191 -0.282647 0.007977 0.724926 0.922721 208 196 198 255
-0.034077 0.050302 -0.015248 -0.959191 -0.282647 0.007977 0.732554 0.046282 208 196 198 255
-0.033372 0.048167 -0.014674 -0.959191 -0.282647 0.007977 0.738376 0.006718 208 196 198 255
-0.033400 0.048099 -0.011931 -0.959191 -0.282647 0.007977 0.739106 0.943193 208 196 198 255
-0.034175 0.126045 -0.015238 -0.999998 -0.000239 0.002113 0.004577 0.005374 208 196 198 255
-0.034152 0.050868 -0.012821 -0.999998 -0.000239 0.002113 0.724926 0.922721 208 196 198 255
-0.034171 0.126143 -0.012909 -0.999998 -0.000239 0.002113 0.012451 0.929594 208 196 198 255
-0.034077 0.050302 -0.015248 -0.999524 -0.001298 -0.030826 0.732554 0.046282 208 196 198 255
-0.034152 0.050868 -0.012821 -0.999524 -0.001298 -0.030826 0.724926 0.922721 208 196 198 255
-0.034175 0.126045 -0.015238 -0.999524 -0.001298 -0.030826 0.004577 0.005374 208 196 198 255
0.027256 0.041546 -0.006072 0.000125 0.583383 0.812197 0.876672 0.801180 208 196 198 255
-0.027218 0.041372 -0.005939 0.000125 0.583383 0.812197 0.975770 0.802685 207 195 197 255
-0.020457 0.034742 -0.001178 0.000125 0.583383 0.812197 0.912387 0.857494 204 193 195 255
-0.027218 0.041372 -0.005939 -0.745357 -0.666337 0.020938 0.802760 0.952122 207 195 197 255
-0.033400 0.048099 -0.011931 -0.745357 -0.666337 0.020938 0.739106 0.943193 208 196 198 255
-0.014958 0.027924 0.002500 -0.745357 -0.666337 0.020938 0.922421 0.970093 182 173 173 255
0.016145 0.029441 0.001780 0.000669 0.417555 0.908651 0.896820 0.905778 201 189 190 255
-0.014958 0.027924 0.002500 0.000669 0.417555 0.908651 0.979206 0.938567 182 173 173 255
-0.006947 0.019396 0.006413 0.000669 0.417555 0.908651 0.995345 0.997109 108 85 70 255
0.016145 0.029441 0.001780 -0.002677 0.473052 0.881031 0.896820 0.905778 201 189 190 255
-0.020457 0.034742 -0.001178 -0.002677 0.473052 0.881031 0.912387 0.857494 204 193 195 255
-0.014958 0.027924 0.002500 -0.002677 0.473052 0.881031 0.979206 0.938567 182 173 173 255
-0.014955 0.028043 -0.000289 -0.729913 -0.682874 -0.030170 0.919487 0.037230 194 186 187 255
-0.007069 0.019432 0.003831 -0.729913 -0.682874 -0.030170 0.995688 0.004530 222 218 215 255
-0.014958 0.027924 0.002500 -0.729913 -0.682874 -0.030170 0.922421 0.970093 182 173 173 255
0.033453 0.130077 -0.015411 -0.000029 0.123701 -0.992320 0.818954 0.009323 208 196 198 255
-0.033560 0.130078 -0.015409 -0.000029 0.123701 -0.992320 0.989299 0.002499 208 196 198 255
-0.031941 0.131402 -0.015244 -0.000029 0.123701 -0.992320 0.855382 0.019876 208 196 198 255
-0.033543 0.130081 -0.012741 -0.185137 0.000437 0.982713 0.003404 0.997690 208 196 198 255
-0.034152 0.050868 -0.012821 -0.185137 0.000437 0.982713 0.724926 0.922721 208 196 198 255
-0.033025 0.050760 -0.012609 -0.185137 0.000437 0.982713 0.734532 0.986901 206 195 197 255
-0.033543 0.130081 -0.012741 -0.264244 0.001064 0.964455 0.003404 0.997690 208 196 198 255
-0.034171 0.126143 -0.012909 -0.264244 0.001064 0.964455 0.062695 0.932615 208 196 198 255
-0.034152 0.050868 -0.012821 -0.264244 0.001064 0.964455 0.724926 0.922721 208 196 198 255
-0.033560 0.130078 -0.015409 -0.988579 0.150642 -0.004291 -0.061788 0.005683 208 196 198 255
-0.034175 0.126045 -0.015238 -0.988579 0.150642 -0.004291 -0.022224 0.074350 208 196 198 255
-0.034171 0.126143 -0.012909 -0.988579 0.150642 -0.004291 0.012451 0.929594 208 196 198 255
-0.033543 0.130081 -0.012741 -0.987572 0.157052 0.006043 -0.060268 0.954680 208 196 198 255
-0.033560 0.130078 -0.015409 -0.987572 0.157052 0.006043 -0.061788 0.005683 208 196 198 255
-0.034171 0.126143 -0.012909 -0.987572 0.157052 0.006043 0.012451 0.929594 208 196 198 255
-0.033560 0.130078 -0.015409 -0.228270 -0.000481 -0.973598 0.081753 0.005021 208 196 198 255
-0.033198 0.054411 -0.015457 -0.228270 -0.000481 -0.973598 0.674208 0.004350 208 196 198 255
-0.034077 0.050302 -0.015248 -0.228270 -0.000481 -0.973598 0.732554 0.046282 208 196 198 255
-0.033198 0.054411 -0.015457 -0.000146 0.000730 -1.000000 0.035758 0.732152 208 196 198 255
-0.033560 0.130078 -0.015409 -0.000146 0.000730 -1.000000 0.483184 0.022903 208 196 198 255
0.033453 0.130077 -0.015411 -0.000146 0.000730 -1.000000 0.371136 0.071404 208 196 198 255
0.030991 0.054553 -0.015473 -0.000146 0.000730 -1.000000 0.060868 0.729767 208 196 198 255
-0.020457 0.034742 -0.001178 -0.639196 -0.104604 0.761897 0.853696 0.979991 204 193 195 255
-0.027218 0.041372 -0.005939 -0.639196 -0.104604 0.761897 0.802760 0.952122 207 195 197 255
-0.014958 0.027924 0.002500 -0.639196 -0.104604 0.761897 0.922421 0.970093 182 173 173 255
0.013804 0.026963 0.000236 -0.000392 -0.476458 -0.879197 0.044779 0.933941 198 186 186 255
-0.014955 0.028043 -0.000289 -0.000392 -0.476458 -0.879197 0.079515 0.933546 194 186 187 255
-0.020390 0.034560 -0.003866 -0.000392 -0.476458 -0.879197 0.112051 0.860089 181 173 174 255
0.020802 0.034563 -0.003839 -0.000392 -0.476458 -0.879197 0.081449 0.856615 208 196 198 255
0.033447 0.130045 -0.012722 -0.000298 0.001675 0.999999 0.984545 0.091731 208 196 198 255
-0.033543 0.130081 -0.012741 -0.000298 0.001675 0.999999 0.888319 0.028570 208 196 198 255
-0.033025 0.050760 -0.012609 -0.000298 0.001675 0.999999 0.873751 0.732463 206 195 197 255
-0.031975 0.131380 -0.012901 -0.000188 0.999956 0.009386 0.946078 0.988462 208 196 198 255
0.031854 0.131392 -0.012900 -0.000188 0.999956 0.009386 0.859382 0.980471 208 196 198 255
-0.031941 0.131402 -0.015244 -0.000188 0.999956 0.009386 0.855382 0.019876 208 196 198 255
-0.020390 0.034560 -0.003866 -0.000585 -0.573998 -0.818856 0.112051 0.860089 181 173 174 255
-0.026958 0.041216 -0.008527 -0.000585 -0.573998 -0.818856 0.078113 0.794473 205 193 195 255
0.027100 0.041509 -0.008771 -0.000585 -0.573998 -0.818856 0.096976 0.809152 208 196 198 255
-0.033372 0.048167 -0.014674 0.000208 -0.662347 -0.749197 0.037441 0.731843 208 196 198 255
0.027100 0.041509 -0.008771 0.000208 -0.662347 -0.749197 0.096976 0.809152 208 196 198 255
-0.026958 0.041216 -0.008527 0.000208 -0.662347 -0.749197 0.078113 0.794473 205 193 195 255
0.006862 0.019398 0.003823 0.000389 -0.428801 -0.903399 0.042112 0.999200 107 82 64 255
-0.014955 0.028043 -0.000289 0.000389 -0.428801 -0.903399 0.079515 0.933546 194 186 187 255
0.013804 0.026963 0.000236 0.000389 -0.428801 -0.903399 0.044779 0.933941 198 186 186 255
0.031854 0.131392 -0.012900 -0.000226 0.131153 0.991362 0.859382 0.980471 208 196 198 255
-0.033543 0.130081 -0.012741 -0.000226 0.131153 0.991362 0.911507 0.994421 208 196 198 255
0.033447 0.130045 -0.012722 -0.000226 0.131153 0.991362 0.979770 0.997743 208 196 198 255
0.031854 0.131392 -0.012900 -0.000046 0.122304 0.992493 0.859382 0.980471 208 196 198 255
-0.031975 0.131380 -0.012901 -0.000046 0.122304 0.992493 0.946078 0.988462 208 196 198 255
-0.033543 0.130081 -0.012741 -0.000046 0.122304 0.992493 0.911507 0.994421 208 196 198 255
0.033968 0.050768 -0.012658 0.999978 -0.001691 0.006458 0.727734 0.938185 208 196 198 255
0.033984 0.050392 -0.015249 0.999978 -0.001691 0.006458 0.732674 0.054351 208 196 198 255
0.034096 0.125939 -0.012920 0.999978 -0.001691 0.006458 0.062826 0.934691 208 196 198 255
0.033984 0.050392 -0.015249 0.999876 -0.001007 -0.015726 0.732674 0.054351 208 196 198 255
0.034060 0.126121 -0.015246 0.999876 -0.001007 -0.015726 0.003293 0.004455 208 196 198 255
0.034096 0.125939 -0.012920 0.999876 -0.001007 -0.015726 0.062826 0.934691 208 196 198 255
0.006862 0.019398 0.003823 0.731165 -0.682171 -0.006420 0.999200 0.147241 107 82 64 255
0.022260 0.035957 -0.002043 0.731165 -0.682171 -0.006420 0.847839 0.879726 208 196 198 255
0.006891 0.019404 0.006402 0.731165 -0.682171 -0.006420 0.994944 0.997111 104 78 59 255
0.022260 0.035957 -0.002043 0.717204 -0.692971 -0.073555 0.847839 0.879726 208 196 198 255
0.006862 0.019398 0.003823 0.717204 -0.692971 -0.073555 0.999200 0.147241 107 82 64 255
0.013804 0.026963 0.000236 0.717204 -0.692971 -0.073555 0.935109 0.027656 198 186 186 255
0.033968 0.050768 -0.012658 0.308603 0.002786 0.951187 0.727734 0.938185 208 196 198 255
0.034096 0.125939 -0.012920 0.308603 0.002786 0.951187 0.062826 0.934691 208 196 198 255
0.033447 0.130045 -0.012722 0.308603 0.002786 0.951187 0.024331 0.996367 208 196 198 255
0.031846 0.131395 -0.015243 0.633883 0.773428 -0.001279 -0.094726 0.071746 208 196 198 255
0.031854 0.131392 -0.012900 0.633883 0.773428 -0.001279 -0.094669 0.993840 208 196 198 255
0.033453 0.130077 -0.015411 0.633883 0.773428 -0.001279 -0.059782 0.118025 208 196 198 255
0.031854 0.131392 -0.012900 0.644780 0.764297 0.010438 -0.094669 0.993840 208 196 198 255
0.033447 0.130045 -0.012722 0.644780 0.764297 0.010438 -0.059000 0.921308 208 196 198 255
0.033453 0.130077 -0.015411 0.644780 0.764297 0.010438 -0.059782 0.118025 208 196 198 255
0.034096 0.125939 -0.012920 0.987766 0.155896 0.003912 0.014392 0.932190 208 196 198 255
0.033453 0.130077 -0.015411 0.987766 0.155896 0.003912 -0.059782 0.118025 208 196 198 255
0.033447 0.130045 -0.012722 0.987766 0.155896 0.003912 -0.059000 0.921308 208 196 198 255
0.034096 0.125939 -0.012920 0.988452 0.151492 -0.003583 0.014392 0.932190 208 196 198 255
0.034060 0.126121 -0.015246 0.988452 0.151492 -0.003583 -0.025043 0.052752 208 196 198 255
0.033453 0.130077 -0.015411 0.988452 0.151492 -0.003583 -0.059782 0.118025 208 196 198 255
0.030991 0.054553 -0.015473 0.072676 -0.001544 -0.997354 0.728869 0.000832 208 196 198 255
0.033453 0.130077 -0.015411 0.072676 -0.001544 -0.997354 0.007667 0.002073 208 196 198 255
0.033984 0.050392 -0.015249 0.072676 -0.001544 -0.997354 0.732674 0.054351 208 196 198 255
0.033221 0.048197 -0.011955 0.000683 0.263568 0.964641 0.942500 0.737018 208 196 198 255
0.033968 0.050768 -0.012658 0.000683 0.263568 0.964641 0.959220 0.733578 208 196 198 255
-0.033025 0.050760 -0.012609 0.000683 0.263568 0.964641 0.873751 0.732463 206 195 197 255
0.027256 0.041546 -0.006072 0.758926 -0.650273 0.034302 0.801662 0.960063 208 196 198 255
0.033335 0.048188 -0.014666 0.758926 -0.650273 0.034302 0.738469 0.015200 208 196 198 255
0.033221 0.048197 -0.011955 0.758926 -0.650273 0.034302 0.739089 0.939360 208 196 198 255
0.033335 0.048188 -0.014666 0.961567 -0.270813 0.045273 0.738469 0.015200 208 196 198 255
0.033984 0.050392 -0.015249 0.961567 -0.270813 0.045273 0.732674 0.054351 208 196 198 255
0.033968 0.050768 -0.012658 0.961567 -0.270813 0.045273 0.727734 0.938185 208 196 198 255
0.033335 0.048188 -0.014666 0.667542 -0.733930 -0.125439 0.738469 0.015200 208 196 198 255
0.022260 0.035957 -0.002043 0.667542 -0.733930 -0.125439 0.847839 0.879726 208 196 198 255
0.027100 0.041509 -0.008771 0.667542 -0.733930 -0.125439 0.801823 0.045224 208 196 198 255
-0.033372 0.048167 -0.014674 0.000304 -0.661861 -0.749627 0.037441 0.731843 208 196 198 255
0.033335 0.048188 -0.014666 0.000304 -0.661861 -0.749627 0.037276 0.731856 208 196 198 255
0.027100 0.041509 -0.008771 0.000304 -0.661861 -0.749627 0.096976 0.809152 208 196 198 255
0.033335 0.048188 -0.014666 0.000269 -0.257825 -0.966192 0.037276 0.731856 208 196 198 255
-0.033372 0.048167 -0.014674 0.000269 -0.257825 -0.966192 0.037441 0.731843 208 196 198 255
-0.034077 0.050302 -0.015248 0.000269 -0.257825 -0.966192 0.036446 0.732003 208 196 198 255
0.033984 0.050392 -0.015249 0.000269 -0.257825 -0.966192 0.033787 0.731673 208 196 198 255
0.033984 0.050392 -0.015249 -0.000041 -0.052240 -0.998635 0.033787 0.731673 208 196 198 255
-0.034077 0.050302 -0.015248 -0.000041 -0.052240 -0.998635 0.036446 0.732003 208 196 198 255
-0.033198 0.054411 -0.015457 -0.000041 -0.052240 -0.998635 0.035758 0.732152 208 196 198 255
0.030991 0.054553 -0.015473 -0.000041 -0.052240 -0.998635 0.060868 0.729767 208 196 198 255
3 0 1 2
3 3 4 5
3 6 7 8
3 9 10 11
3 12 13 14
3 15 16 17
3 18 19 20
3 21 22 23
3 24 25 26
3 27 28 29
3 30 31 32
3 33 34 35
3 36 37 38
3 39 40 41
3 42 43 44
3 45 46 47
3 48 49 50
3 51 52 53
3 54 55 56
3 57 58 59
3 60 61 62
3 63 64 65
3 66 67 68
3 69 70 71
3 72 73 74
3 75 76 77
3 78 79 80
3 81 82 83
3 84 85 86
3 87 88 89
3 90 91 92
3 93 94 95
3 96 97 98
3 99 100 101
3 102 103 104
3 105 106 107
3 108 109 110
3 111 112 113
3 114 115 116
3 117 118 119
3 120 121 122
3 123 124 125
3 126 127 128
3 129 130 131
3 132 133 134
3 135 136 137
3 138 139 140
3 141 142 143
3 144 145 146
3 147 148 149
3 150 151 152
3 153 154 155
3 156 157 158
3 159 160 161
3 162 163 164
3 165 166 167
3 168 169 170
3 171 172 173
3 174 175 176
4 177 178 179 180
3 181 182 183
3 184 185 186
3 187 188 189
3 190 191 192
3 193 194 195
3 196 197 198
3 199 200 201
3 202 203 204
3 205 206 207
3 208 209 210
3 211 212 213
3 214 215 216
3 217 218 219
4 220 221 222 223
4 224 225 226 227
3 228 229 230
3 231 232 233
3 234 235 236
3 237 238 239
3 240 241 242
3 243 244 245
4 246 247 248 249
4 250 251 252 253
4 254 255 256 257
4 258 259 260 261
4 262 263 264 265
4 266 267 268 269
4 270 271 272 273
3 274 275 276
4 277 278 279 280
3 281 282 283
3 284 285 286
3 287 288 289
3 290 291 292
3 293 294 295
3 296 297 298
3 299 300 301
3 302 303 304
3 305 306 307
4 308 309 310 311
3 312 313 314
4 315 316 317 318
3 319 320 321
3 322 323 324
3 325 326 327
3 328 329 330
3 331 332 333
3 334 335 336
3 337 338 339
3 340 341 342
3 343 344 345
4 346 347 348 349
3 350 351 352
3 353 354 355
3 356 357 358
3 359 360 361
3 362 363 364
3 365 366 367
3 368 369 370
3 371 372 373
3 374 375 376
3 377 378 379
3 380 381 382
3 383 384 385
3 386 387 388
4 389 390 391 392
3 393 394 395
4 396 397 398 399
3 400 401 402
3 403 404 405
3 406 407 408
3 409 410 411
3 412 413 414
3 415 416 417
3 418 419 420
3 421 422 423
3 424 425 426
3 427 428 429
3 430 431 432
3 433 434 435
3 436 437 438
3 439 440 441
3 442 443 444
3 445 446 447
3 448 449 450
3 451 452 453
3 454 455 456
3 457 458 459
3 460 461 462
3 463 464 465
4 466 467 468 469
4 470 471 472 473
